<svg viewBox="0 0 48 48" xmlns="http://www.w3.org/2000/svg"><g fill="none"><path d="M21 3.25l6 6L9.172 27.02a4.204 4.204 0 0 1-5.942 0 4.204 4.204 0 0 1 0-5.942L21 3.25zm-.012 17.767l5.992 6.003-9.055 9.015c-1.652 1.65-4.27 1.638-5.923-.012-1.652-1.653-1.717-4.318-.062-5.968l9.048-9.038z" fill="#4285F4"/><path d="M44.773 21.01a4.2 4.2 0 0 1 .002 5.932l.003.003-17.805 17.833L21 38.75l17.843-17.747.002.002a4.19 4.19 0 0 1 5.928.005zm-8.768-9.013a4.258 4.258 0 0 1 0 6.018c-.035.035-.073.065-.108.098L27 27l-6-6 8.9-8.893c.033-.037.063-.074.098-.11a4.241 4.241 0 0 1 6.007 0z" fill="#FBBC05"/><path d="M27.003 9.25A4.246 4.246 0 1 1 21 3.245a4.245 4.245 0 1 1 6.003 6.005zM24 46a4.25 4.25 0 1 1 0-8.5 4.25 4.25 0 0 1 0 8.5zm3-19c-1.663 1.663-4.343 1.698-6.005.035A4.275 4.275 0 0 1 21 21c1.663-1.663 4.35-1.645 6.012.017A4.211 4.211 0 0 1 27 27z" fill="#34A853"/></g></svg>