<svg viewBox="0 0 48 48" xmlns="http://www.w3.org/2000/svg"><g fill="none" fill-rule="evenodd"><path d="M33 30.995a5.001 5.001 0 0 1 10 0v10.01a5.001 5.001 0 0 1-10 0v-10.01zm-28 0a5.001 5.001 0 0 1 10 0v10.01a5.001 5.001 0 0 1-10 0v-10.01zM5 17c0-2.761 2.244-5 5-5 2.761 0 5 2.244 5 5 0 2.761-2.244 5-5 5-2.761 0-5-2.244-5-5zm28 0c0-2.761 2.244-5 5-5 2.761 0 5 2.244 5 5 0 2.761-2.244 5-5 5-2.761 0-5-2.244-5-5z" fill="#C58AF8"/><path d="M19 21.004A5.006 5.006 0 0 1 24 16c2.761 0 5 2.23 5 5.004v19.992A5.006 5.006 0 0 1 24 46c-2.761 0-5-2.23-5-5.004V21.004zM19 7c0-2.761 2.244-5 5-5 2.761 0 5 2.244 5 5 0 2.761-2.244 5-5 5-2.761 0-5-2.244-5-5z" fill="#A142F4"/></g></svg>