<svg viewBox="0 0 48 48" xmlns="http://www.w3.org/2000/svg"><g fill="none"><circle fill="#4285F4" cx="24" cy="24" r="22"/><path d="M45.105 30.223C42.6 38.73 35.093 45.094 25.985 45.91l-15.17-15.17C11.467 31.435 19 16.5 19 16.5s12.428.308 11.852-.36l14.253 14.082z" fill-opacity=".1" fill="#000"/><path d="M33 21.025h-.015C32.487 16.513 28.655 13 24 13a9.043 9.043 0 0 0-8.537 6.052C11.848 19.328 9 22.337 9 26.015 9 29.872 12.135 33 16 33l.073-.002V33H33c3.313 0 6-2.68 6-5.988 0-3.307-2.688-5.987-6-5.987zM27 24v5h-6v-5h-3l6-6 6 6h-3z" fill="#F5F5F5"/></g></svg>