<svg viewBox="0 0 48 48" xmlns="http://www.w3.org/2000/svg"><g fill="none" fill-rule="evenodd"><path d="M20.476 27.524l10.99-.074c1.214 4.916-.1 10.329-3.942 14.17-5.839 5.84-15.306 5.84-21.145 0l7.049-7.048a4.984 4.984 0 0 0 7.048-7.048z" fill="#34A853"/><path d="M27.524 20.476a4.984 4.984 0 1 0 7.048-7.048l7.049-7.049c5.839 5.84 5.839 15.306 0 21.145-5.84 5.84-15.306 5.84-21.145 0l7.048-7.048z" fill="#5BB974"/><path d="M34.572 13.428a4.984 4.984 0 0 0-7.048 7.048l-11.333-1.844a14.924 14.924 0 0 1 4.285-12.253C26.315.54 35.782.54 41.62 6.38a4.984 4.984 0 1 1-7.049 7.049z" fill="#1D8B3D"/><path d="M13.428 34.572a4.984 4.984 0 0 1 7.048-7.048l7.054-.006-.006-7.042c-5.839-5.84-15.306-5.84-21.145 0C.54 26.315.54 35.782 6.38 41.62a4.984 4.984 0 1 0 7.049-7.049z" fill="#5BB974"/></g></svg>