<svg viewBox="0 0 48 48" xmlns="http://www.w3.org/2000/svg"><g fill="none"><path d="M19.262 13.096L5 29.07v8.502A5.428 5.428 0 0 0 10.428 43H37.57a5.424 5.424 0 0 0 4.718-2.75v-.365l-23.026-26.79z" fill="#34A853"/><path d="M36.865 5H10.427A5.428 5.428 0 0 0 5 10.428v1.262l12.762 14.876L36.865 5z" fill="#EA4335"/><path d="M43 10.428A5.428 5.428 0 0 0 37.572 5h-1.067L16.672 20.38 42.29 40.25c.45-.79.71-1.703.71-2.678V10.427z" fill="#4285F4"/><path d="M5 11.33v18.1c4.707-3.652 5.91-4.582 11.67-9.05L5 11.33z" fill="#FBBC05"/><circle fill="#FFF" cx="24" cy="20.5" r="10.5"/><circle fill="#4285F4" cx="24" cy="20.5" r="6.25"/></g></svg>