<svg viewBox="0 0 48 48" xmlns="http://www.w3.org/2000/svg"><g fill="none" fill-rule="evenodd"><path d="M23 46c8.837 0 16-7.163 16-16L23 14c-8.837 0-16 7.163-16 16s7.163 16 16 16z" fill="#0A8BD2"/><path d="M15 11.503A1.5 1.5 0 0 1 16.505 10h4.99c.831 0 1.505.677 1.505 1.496V12l5 15-13 3V11.503z" fill="#F7C438"/><path d="M23 7.505C23 6.674 23.668 6 24.505 6h4.99C30.326 6 31 6.677 31 7.494V8l3.989 10L31 30l-8-8V7.505z" fill="#0FD3B5"/><path d="M31 3.505C31 2.674 31.668 2 32.505 2h4.99A1.5 1.5 0 0 1 39 3.505V30h-8V3.505z" fill="#0A8BD2"/><path d="M38.458 34.144l-9.801-9.8-11.314 11.313 9.801 9.801a16.03 16.03 0 0 0 11.314-11.314z" fill-opacity=".1" fill="#000"/><circle fill="#FFF" cx="23" cy="30" r="8"/></g></svg>