<svg viewBox="0 0 48 48" xmlns="http://www.w3.org/2000/svg"><g fill="none" fill-rule="evenodd"><path d="M41 5v10H23.992A5 5 0 0 1 19 10c0-2.761 2.23-5 4.992-5H41zm0 28v10H23.992A5 5 0 0 1 19 38c0-2.761 2.23-5 4.992-5H41zM24 19v10H6.992A5 5 0 0 1 2 24c0-2.761 2.23-5 4.992-5H24z" fill="#669DF6"/><path d="M36 10c0-2.761 2.244-5 5-5 2.761 0 5 2.244 5 5 0 2.761-2.244 5-5 5-2.761 0-5-2.244-5-5zm0 28c0-2.761 2.244-5 5-5 2.761 0 5 2.244 5 5 0 2.761-2.244 5-5 5-2.761 0-5-2.244-5-5zM19 24c0-2.761 2.244-5 5-5 2.761 0 5 2.244 5 5 0 2.761-2.244 5-5 5-2.761 0-5-2.244-5-5z" fill="#1A73E8"/></g></svg>