<svg viewBox="0 0 48 48" xmlns="http://www.w3.org/2000/svg"><path fill="#FBBC05" d="M30.333 37.155l.1-6.321h-3.754L17.906 46h7.511l5.015-8.673z"/><path fill="#34A853" d="M22.726 24h3.953v6.834L17.906 46H10z"/><path fill-opacity=".1" fill="#BF360C" d="M30.433 37.327v-6.493h-3.754l-.921 1.591z"/><path fill-opacity=".1" d="M25.758 32.425l.92-1.591.428-5.067L22.726 24l-1.888 3.266z"/><path fill="#EA4335" d="M36.947 26.063a4.115 4.115 0 0 0 0-4.125L25.417 2h-7.51l4.776 14.245L34.386 30.49l2.56-4.427z"/><path fill="#4285F4" d="M17.906 2H10l20.433 35.327 3.95-6.83.003-.007z"/></svg>