<svg viewBox="0 0 48 48" xmlns="http://www.w3.org/2000/svg"><g fill="none" fill-rule="evenodd"><circle fill="#1A73E8" cx="24" cy="24" r="22"/><path d="M32.834 44.155l-14.449-14.35-.828-8.367 1.813-10.223 23.814 23.562a22.089 22.089 0 0 1-10.35 9.378z" fill-opacity=".1" fill="#000" fill-rule="nonzero"/><path d="M17.475 21.375h-3.133v3.18a25.045 25.045 0 0 0 9.158 9.133l3.157-.003.003-3.155a21.805 21.805 0 0 1-9.185-9.155z" fill="#F1F3F4" fill-rule="nonzero"/><path d="M35.962 28.315c.708.092 1.038.37 1.038 1.005v6.585c0 .597-.485 1.082-1.083 1.082-4.52 0-8.76-1.195-12.415-3.3l5.993-5.987c.3-.3.72-.335 1.113-.26 1.63.317 3.545.64 5.354.875zM19.677 11.99c.236 1.81.596 3.83.913 5.463.075.392.04.812-.26 1.112l-5.987 5.992A25.02 25.02 0 0 1 11 12.09c0-.598.485-1.088 1.082-1.088h6.598c.598-.002.907.278.997.988z" fill="#FFF" fill-rule="nonzero"/></g></svg>