<svg viewBox="0 0 48 48" xmlns="http://www.w3.org/2000/svg"><g fill="none" fill-rule="evenodd"><path fill="#34A853" d="M6 9h10.133v15l-5.066 5L6 24z"/><path d="M13.58 4.659c-2.43-1.37-5.525-.537-6.913 1.86-1.388 2.398-.543 5.453 1.886 6.822l26.6 15c2.43 1.37 5.525.537 6.913-1.86 1.388-2.398.544-5.453-1.886-6.822l-26.6-15z" fill="#5BB974"/><path d="M11.165 44a5.095 5.095 0 0 0 2.415-.659l26.6-15c2.43-1.37 3.274-4.424 1.886-6.821-1.388-2.398-4.483-3.231-6.913-1.861l-26.6 15c-2.43 1.37-3.274 4.424-1.886 6.821a5.076 5.076 0 0 0 4.31 2.52h.188z" fill="#81C995"/><path fill="#34A853" d="M6 24h10.133v15H6z"/><ellipse fill="#1E8E3E" cx="11.067" cy="39" rx="5.067" ry="5"/></g></svg>