<svg viewBox="0 0 48 48" xmlns="http://www.w3.org/2000/svg"><g fill="none"><path d="M20 11H5a3 3 0 0 0-3 3v15.75-.128c0-.397.158-.78.44-1.06l14.082-7.193L20 11z" fill="#34A853"/><path d="M43 42H5a3 3 0 0 1-3-3v-9.378c0-.397.158-.78.44-1.06l14.36-7.349L23.562 7.44c.283-.283.663-.44 1.06-.44H43a3 3 0 0 1 3 3v29a3 3 0 0 1-3 3z" fill="#4285F4"/><path d="M46 39V28.25L24.75 7c-.523 0-.91.165-1.192.457l-6.17 13.49L2.44 28.56c-.282.283-.44.663-.44 1.063v.127L14.25 42H43a3 3 0 0 0 3-3z" fill-opacity=".1" fill="#000"/><path d="M23.56 7.44l-7.946 12.376L2.44 28.56c-.282.283-.44.663-.44 1.063v.127c0-.415.335-.75.75-.75H21a3 3 0 0 0 3-3V7.75c0-.415.335-.75.75-.75h-.128c-.4 0-.78.157-1.062.44z" fill="#EA4335"/><path d="M2 29.75c0-.595.385-1.122.953-1.302l13.33-4.24a4.5 4.5 0 0 0 2.922-2.923l4.24-13.33A1.37 1.37 0 0 1 24.75 7h-.128c-.397 0-.78.157-1.06.44L2.44 28.56c-.282.283-.44.663-.44 1.063v.127z" fill="#FBBC05"/></g></svg>