<svg viewBox="0 0 48 48" xmlns="http://www.w3.org/2000/svg"><g fill="none"><path d="M44.74 20H24v8.5h11.843c-.51 2.75-2.053 5.093-4.39 6.66v5.53h7.125c4.157-3.83 6.547-9.495 6.547-16.19 0-1.56-.133-3.063-.385-4.5z" fill="#4285F4"/><path d="M31.455 35.16c-1.967 1.32-4.497 2.09-7.455 2.09-5.725 0-10.582-3.862-12.318-9.067H4.34v5.697C7.96 41.07 15.403 46 24 46c5.938 0 10.938-1.95 14.58-5.31l-7.125-5.53z" fill="#34A853"/><path d="M11 24c0-1.455.242-2.863.682-4.183v-5.7H4.34A21.929 21.929 0 0 0 2 24c0 3.555.845 6.91 2.34 9.883l7.342-5.698A13.24 13.24 0 0 1 11 24z" fill="#FBBC05"/><path d="M24 10.75c3.233 0 6.13 1.113 8.415 3.29l6.305-6.305C34.907 4.18 29.935 2 24 2 15.402 2 7.96 6.93 4.34 14.117l7.342 5.698C13.418 14.612 18.276 10.75 24 10.75z" fill="#EA4335"/></g></svg>