<svg viewBox="0 0 48 48" xmlns="http://www.w3.org/2000/svg"><g fill="none"><path fill="#34A853" d="M34 42H14l-1.605-4L14 34h20l1 4z"/><path d="M42 22.832V40a2 2 0 0 1-2 2h-6V25.332l-10-10 1.375-3.875 4.24-1.747.005.005 11.857 11.87c.308.335.523.767.523 1.247z" fill="#4285F4"/><path d="M14 25.332V42H8a2 2 0 0 1-2-2v-6.667l3.75-5.688L14 25.332z" fill="#FBBC05"/><path d="M29.62 9.715L24 15.332l-18 18v-10.5c.018-.48.215-.912.522-1.247 0 0 16.033-16.047 16.065-16.082.363-.36.913-.585 1.413-.585s1.05.224 1.413.585l4.202 4.207" fill="#EA4335"/></g></svg>