<svg viewBox="0 0 48 48" xmlns="http://www.w3.org/2000/svg" xmlns:xlink="http://www.w3.org/1999/xlink"><defs><circle id="a" cx="24" cy="24" r="10"/></defs><g fill="none" fill-rule="evenodd"><path d="M5 6.5A1.5 1.5 0 0 1 6.5 5h5A1.5 1.5 0 0 1 13 6.5V11H5V6.5z" fill="#9E9E9E"/><path d="M2 11a3 3 0 0 1 3-3h38a3 3 0 0 1 3 3v26a3 3 0 0 1-3 3H5a3 3 0 0 1-3-3V11z" fill="#E0E0E0"/><path d="M14.807 33.193l18.385-18.385L46 27.616V37a3 3 0 0 1-3 3H21.615l-6.808-6.807z" fill-opacity=".1" fill="#000"/><path d="M37 24c0 7.18-5.82 13-13 13s-13-5.82-13-13 5.82-13 13-13 13 5.82 13 13z" fill="#F5F5F5"/><path d="M43 13a2 2 0 1 1-4 0 2 2 0 0 1 4 0z" fill="#9E9E9E"/><mask id="b" fill="#fff"><use xlink:href="#a"/></mask><path d="M37 24c0 3.352-1.27 6.405-3.352 8.712L24 24v-4l12.095-.765A12.982 12.982 0 0 1 37 24z" fill="#3F51B5" fill-rule="nonzero" mask="url(#b)"/><path d="M21.28 36.712c.877.188 1.787.288 2.72.288 3.828 0 7.27-1.655 9.648-4.288L27.465 22 24 24l-2.72 12.712z" fill="#4285F4" fill-rule="nonzero" mask="url(#b)"/><path d="M11.63 28a13.02 13.02 0 0 0 9.65 8.712L27.465 26 24 24l-12.37 4z" fill="#34A853" fill-rule="nonzero" mask="url(#b)"/><path d="M14.352 15.287A12.958 12.958 0 0 0 11 24c0 1.395.223 2.74.63 4H24v-4l-9.648-8.713z" fill="#FBBC05" fill-rule="nonzero" mask="url(#b)"/><path d="M24 24l-2.5-2.168 5.22-10.545A13.006 13.006 0 0 0 24 11c-3.828 0-7.27 1.655-9.648 4.287L20.535 26 24 24z" fill="#FB8C00" fill-rule="nonzero" mask="url(#b)"/><path d="M36.37 20H24v4l-3.465-2 6.185-10.713A13.024 13.024 0 0 1 36.37 20z" fill="#EA4335" fill-rule="nonzero" mask="url(#b)"/><circle fill="#EEE" fill-rule="nonzero" mask="url(#b)" cx="24" cy="24" r="4"/></g></svg>