<svg viewBox="0 0 48 48" xmlns="http://www.w3.org/2000/svg"><g fill="none" fill-rule="evenodd"><circle fill="#1A73E8" cx="24" cy="24" r="22"/><path d="M25.686 45.936L12.5 32.75l22.25-18.5 11.186 11.435c-.818 10.806-9.443 19.432-20.25 20.251z" fill-opacity=".1" fill="#000" fill-rule="nonzero"/><path d="M31 13H8.525c-.813 0-1.3.9-.86 1.58L11 19.727V29c0 3.3 2.7 6 6 6h14c3.3 0 6-2.7 6-6V19c0-3.3-2.7-6-6-6z" fill="#FFF"/><path d="M32 19a1.5 1.5 0 0 1-1.5 1.5h-13a1.501 1.501 0 0 1 0-3h13A1.5 1.5 0 0 1 32 19zm-6 10a1.5 1.5 0 0 1-1.5 1.5h-7a1.501 1.501 0 0 1 0-3h7A1.5 1.5 0 0 1 26 29zm6-5a1.5 1.5 0 0 1-1.5 1.5h-13a1.501 1.501 0 0 1 0-3h13A1.5 1.5 0 0 1 32 24z" fill="#8AB4F8"/></g></svg>