<svg viewBox="0 0 48 48" xmlns="http://www.w3.org/2000/svg"><defs><linearGradient x1="50.003%" y1="100.779%" x2="50.003%" y2="-.041%" id="a"><stop stop-color="#1A73E8" offset="0%"/><stop stop-color="#4285F4" offset="100%"/></linearGradient></defs><g fill="none"><path d="M34 36.815v4.734c0 2.769-2.238 5.015-5 5.015s-5-2.244-5-5.015V29.156L30 30l4 6.815z" fill="#34A853"/><path fill="url(#a)" d="M34 36.815l-10-7.659V17.08L34 6.45z"/><path d="M25.815 2.577c.062-.052.126-.1.19-.146L24 17.079l-4.246 3.516a4.936 4.936 0 0 1-3.172 1.143 4.963 4.963 0 0 1-3.851-1.823 5.029 5.029 0 0 1 .677-7.056L25.815 2.577z" fill="#FBBC04"/><path d="M34 6.446a4.996 4.996 0 0 1-1.818 3.867L24 17.077V6.449a5.008 5.008 0 0 1 2.28-4.206c.043-.028.084-.056.128-.082.08-.05.164-.097.24-.138l.221-.11.185-.085c.074-.03.149-.062.228-.09.074-.028.154-.054.23-.08a4.83 4.83 0 0 1 .442-.115c.043-.01.09-.018.138-.028l.1-.015a5.819 5.819 0 0 1 .387-.049c.057-.005.113-.01.17-.013a5.381 5.381 0 0 1 .792.023 5.665 5.665 0 0 1 .536.09c.087.018.174.041.261.067a4.813 4.813 0 0 1 .834.313c.084.04.169.084.251.128.123.069.241.14.36.22.012.01.025.018.038.026a6.014 6.014 0 0 1 .543.433c.062.06.118.113.174.17.057.056.113.115.167.171.11.118.21.244.305.372.067.087.128.18.187.27.029.043.057.084.082.128.052.079.098.164.139.24l.11.221a5.807 5.807 0 0 1 .172.413c.028.074.054.154.077.23a5.674 5.674 0 0 1 .12.48c.016.072.029.141.041.21.01.057.016.113.024.17.01.069.017.138.023.21.005.056.01.113.012.17-.002.025 0 .053 0 .081.003.057.003.113.003.172z" fill="#EA4335"/></g></svg>