<svg viewBox="0 0 48 48" xmlns="http://www.w3.org/2000/svg"><g fill="none"><path d="M8 40a5 5 0 0 1 0-10h25v10H8z" fill="#EA4335"/><path d="M10.025 23.948a5 5 0 0 1 6.018-7.987L36.01 31.007l-6.018 7.986-19.966-15.045z" fill="#FBBC05"/><path d="M20.91 12.554a5 5 0 1 1 9.562-2.923l7.31 23.907-9.564 2.924-7.309-23.908z" fill="#34A853"/><path d="M35.528 9.63a5 5 0 0 1 9.563 2.924l-7.31 23.908a5 5 0 0 1-9.563-2.924l7.31-23.907z" fill="#4285F4"/><path d="M37.919 10.361a2.5 2.5 0 1 1 4.781 1.462 2.5 2.5 0 0 1-4.781-1.462zm-7.31 23.908a2.5 2.5 0 1 1 4.782 1.462 2.5 2.5 0 0 1-4.782-1.462zM23.3 11.823a2.5 2.5 0 1 1 4.782-1.462 2.5 2.5 0 0 1-4.781 1.462zM11.53 21.951a2.5 2.5 0 1 1 3.01-3.993 2.5 2.5 0 0 1-3.01 3.993zM8 37.5a2.5 2.5 0 1 1 0-5 2.5 2.5 0 0 1 0 5z" fill="#FFF"/></g></svg>