<svg viewBox="0 0 48 48" xmlns="http://www.w3.org/2000/svg"><g fill="none" fill-rule="evenodd"><path d="M28 2H11C9.35 2 8 3.35 8 5v38c0 1.65 1.35 3 3 3h26c1.65 0 3-1.35 3-3V14l-7-5-5-7z" fill="#EBEBEB"/><path fill-opacity=".1" fill="#000" d="M28.878 13.123L40 24.242V14z"/><path d="M28 2v9a3 3 0 0 0 3 3h9L28 2z" fill="#4285F4"/><path d="M18.5 35a1.5 1.5 0 1 1-3.001-.001A1.5 1.5 0 0 1 18.5 35z" fill="#34A853"/><path d="M18.5 25a1.5 1.5 0 1 1-3.001-.001A1.5 1.5 0 0 1 18.5 25z" fill="#EA4335"/><path d="M18.5 30a1.5 1.5 0 1 1-3.001-.001A1.5 1.5 0 0 1 18.5 30z" fill="#FBBC05"/><path d="M21 36v-2h11v2H21zm0-12h11v2H21v-2zm0 7v-2h11v2H21z" fill="silver"/></g></svg>