<svg viewBox="0 0 48 48" xmlns="http://www.w3.org/2000/svg"><g fill="none"><path d="M42.003 46h-24V21h24a3 3 0 0 1 3 3v19a3 3 0 0 1-3 3z" fill="#EEE"/><path d="M31.53 21H18.003v24.998l24 .002a3 3 0 0 0 3-3v-8.527L31.53 21z" fill-opacity=".1" fill="#000"/><path d="M18.003 34.56l-3-8.702 3-6.855 3.305-7.31 5.805-1.81c2.33 3.207 3.88 6.93 4.42 10.942l.023.177c.125.978-4.765 9.448-4.765 9.448l-8.788 4.11z" fill="#8BC34A"/><path d="M18.003 19.003l-2.186-5.826-4.814-1.182-3.49.003a23.93 23.93 0 0 0-3.26 11.987l13.75 10.575V19.003z" fill="#0B8142"/><path d="M4.253 23.985C4.253 33.378 9.777 41.585 18 46l2.253-5.89-2.25-5.55-13.53-13.735a23.984 23.984 0 0 0-.22 3.16z" fill="#0B552B"/><path d="M27.115 9.883l-9.112 9.12-2.5-7.825L18.003 2c3.665 1.942 6.775 4.66 9.112 7.883z" fill="#C6FF00"/><path d="M11 12l7.003 7.003V2A26.94 26.94 0 0 0 11 7.336V12z" fill="#57BB8A"/><path d="M31.753 23.985c0 9.393-5.528 17.6-13.75 22.015V33.998L18 34.56s13.548-13.617 13.556-13.558c.125.978.197 1.974.197 2.983z" fill="#0F9D58"/></g></svg>