<svg viewBox="0 0 48 48" xmlns="http://www.w3.org/2000/svg"><g fill="none" fill-rule="evenodd"><path fill="#4285F4" d="M27.89 11.39l-7.78-7.78-16.5 16.5 7.78 7.78z"/><path d="M18.903 5.43a5.502 5.502 0 0 0 1.208 5.96L32.72 24 20.11 36.61l7.778 7.78 16.5-16.5a5.5 5.5 0 0 0 0-7.78l-16.5-16.5a5.483 5.483 0 0 0-1.82-1.207A5.388 5.388 0 0 0 24 2a5.502 5.502 0 0 0-5.068 3.36l-.03.07z" fill="#8AB4F8"/><path d="M27.89 36.61l-7.78 7.78-16.5-16.5a5.5 5.5 0 0 1 7.78-7.78l16.5 16.5z" fill="#4285F4"/><path d="M24 46a5.5 5.5 0 1 1 0-11 5.5 5.5 0 0 1 0 11z" fill="#246FDB"/></g></svg>