<svg viewBox="0 0 48 48" xmlns="http://www.w3.org/2000/svg"><g fill="none"><circle fill="#4285F4" cx="24" cy="24" r="22"/><path d="M9.318 27.683l6.364-6.366 6.45 6.45 15.83-12.732 8.015 8.015c.016.315.023.633.023.95 0 11.172-8.33 20.4-19.117 21.813l-9.848-9.848.282-.283-8-8z" fill-opacity=".1" fill="#000"/><circle fill="#FBBC04" cx="12.5" cy="24.5" r="4.5"/><path d="M37.965 20.035a3.537 3.537 0 0 0 0-5 3.537 3.537 0 0 0-5 0l-15.93 15.93a3.537 3.537 0 0 0 0 5 3.537 3.537 0 0 0 5 0l15.93-15.93z" fill="#FFF"/></g></svg>