<svg viewBox="0 0 48 48" xmlns="http://www.w3.org/2000/svg"><g fill="none"><path d="M8.444 39.556c5.037-14.37 15.408-24.741 31.112-31.112 8.592 8.591 8.592 22.52 0 31.112-8.591 8.592-22.52 8.592-31.112 0z" fill="#F1F3F4"/><path d="M8.444 39.556c-8.592-8.591-8.592-22.52 0-31.112 8.591-8.592 22.52-8.592 31.112 0L8.444 39.556z" fill="#DADCE0"/><path d="M46 23.66v.67c-.18 11.996-9.96 21.665-21.997 21.665-1.527 0-3.018-.156-4.457-.452L11 36.998 37.002 11l8.551 8.55c.273 1.33.426 2.704.447 4.11z" fill-opacity=".1" fill="#000" opacity=".35"/><path fill="#EA4335" d="M36.998 11l-17.745 8.255L10.998 37l17.744-8.255z"/><path d="M23.995 25.995a2 2 0 1 1-.001-3.999 2 2 0 0 1 .001 3.999z" fill="#D2D4D8"/></g></svg>