<svg viewBox="0 0 48 48" xmlns="http://www.w3.org/2000/svg"><g fill="none" fill-rule="evenodd"><path d="M2.324 34.132l11.8-11.8 4.41 4.408-11.801 11.8c-.43.431-1.13.431-1.56 0l-2.85-2.85a1.103 1.103 0 0 1 0-1.56l.001.002z" fill="#4285F4"/><path d="M19.311 18.702l10.243 10.242-3.625 3.625c-.43.43-1.128.43-1.56 0L14.13 22.327l3.624-3.624c.43-.43 1.127-.43 1.558 0z" fill="#EA4335"/><path fill="#FBBC05" d="M25.147 24.537L37.27 12.412l4.409 4.409-12.125 12.124z"/><path d="M46 20.225V9.286C46 8.576 45.424 8 44.714 8h-10.94a1.286 1.286 0 0 0-.909 2.196l10.94 10.939a1.286 1.286 0 0 0 2.195-.91z" fill="#34A853"/></g></svg>