<svg viewBox="0 0 48 48" xmlns="http://www.w3.org/2000/svg"><g fill="none"><path d="M43 21c0-10.492-8.513-19-19-19C13.512 2 5 10.508 5 21c0 9.94 9.065 18 19 18v7c11.54-5.855 19-15.277 19-25z" fill="#00897B"/><path d="M33.674 39.427L20.163 25.915l-1.17-6.907 1.477-7.795 19.867 19.871c-1.591 2.975-3.851 5.794-6.663 8.343z" fill-opacity=".1" fill="#000"/><path d="M26.055 28.455l-.008-2.427a16.79 16.79 0 0 1-7.055-7.02H16.57v2.425a19.268 19.268 0 0 0 7.045 7.022h2.44z" fill="#E0E0E0"/><path d="M29.082 23.65a69.27 69.27 0 0 0 4.12.673c.543.072.798.285.798.772v5.065c0 .46-.373.832-.833.832-3.477 0-6.737-.917-9.55-2.537l4.61-4.605c.23-.23.553-.258.855-.2zm-8.407-11.885a70.05 70.05 0 0 0 .703 4.202c.057.303.03.626-.2.856l-4.608 4.61a19.256 19.256 0 0 1-2.57-9.59.84.84 0 0 1 .832-.843h5.075c.46-.002.698.22.768.765z" fill="#F5F5F5"/></g></svg>