<svg viewBox="0 0 48 48" xmlns="http://www.w3.org/2000/svg"><defs><linearGradient x1="50%" y1="18.451%" x2="50%" y2="100%" id="a"><stop stop-color="#F2F6F7" offset="0%"/><stop stop-color="#D3E1E9" offset="100%"/></linearGradient></defs><g fill="none"><rect fill="#74D0EB" x="5" y="5" width="38" height="38" rx="3"/><ellipse fill="#2E6C88" cx="23.921" cy="36.501" rx="11.095" ry="1.072"/><ellipse fill="#2E6C88" opacity=".6" cx="27.939" cy="35.903" rx="3.556" ry="1"/><ellipse fill="#2E6C88" opacity=".6" cx="18.835" cy="35.903" rx="3.556" ry="1"/><path d="M22.993 32.255c-3.325 0-8.063-.439-10.825-4.235a.671.671 0 0 1-.06-.683.627.627 0 0 1 .562-.36c2.043 0 2.305-1.573 2.494-4.164.048-.664.094-1.292.202-1.866.358-1.902 1.411-3.614 3.047-4.952a10.626 10.626 0 0 1 5.183-2.272 9.84 9.84 0 0 1 1.351-.093c3.222 0 6.358 1.624 8.185 4.24 1.642 2.35 2.056 5.19 1.165 7.998-.789 2.486-2.976 4.742-5.573 5.745-1.461.565-3.1.642-4.653.642h-.638a26.534 26.534 0 0 0-.44 0z" fill="url(#a)"/><ellipse stroke="#979797" stroke-width="1.33" fill="#D8D8D8" cx="19.094" cy="33.67" rx="1.442" ry="1.495"/><ellipse stroke="#979797" stroke-width="1.33" fill="#D8D8D8" cx="28.172" cy="33.67" rx="1.442" ry="1.495"/><path d="M23.515 20.941c0 .722-.567 1.308-1.267 1.308s-1.268-.586-1.268-1.308c0-.722.568-1.307 1.268-1.307.7 0 1.267.585 1.267 1.307m5.81 0c0 .722-.567 1.308-1.267 1.308s-1.267-.586-1.267-1.308c0-.722.567-1.307 1.267-1.307s1.267.585 1.267 1.307m-4.263 6.899c-2.12 0-4.031-1.432-4.382-3.305a.67.67 0 0 1 .517-.786.653.653 0 0 1 .763.532c.206 1.102 1.487 2.262 3.195 2.216 1.78-.048 2.955-1.143 3.196-2.2a.652.652 0 0 1 .784-.5c.35.085.567.446.485.807-.197.862-.737 1.662-1.52 2.251-.816.614-1.822.954-2.91.983a4.775 4.775 0 0 1-.128.002" fill="#3D3D3D"/><path d="M35.787 21.645a9.83 9.83 0 0 0-1.676-4.08 10.922 10.922 0 0 0-3.894-3.391 11.097 11.097 0 0 0-5.1-1.257c-.496 0-.996.034-1.485.103a11.662 11.662 0 0 0-5.68 2.48c-1.814 1.48-2.985 3.382-3.386 5.501-.12.63-.17 1.328-.22 2.002-.077 1.055-.157 2.146-.481 2.859-.223.487-.554.812-1.45.812-.493 0-.944.288-1.164.743-.22.456-.171 1 .125 1.407 1.35 1.849 3.112 2.968 4.967 3.643a2.735 2.735 0 0 0-.132.837c0 1.47 1.154 2.661 2.578 2.661 1.389 0 2.518-1.134 2.573-2.554.605.034 3.484.042 3.805.033.071 1.404 1.193 2.521 2.571 2.521 1.424 0 2.579-1.191 2.579-2.661 0-.336-.063-.655-.172-.95a11.037 11.037 0 0 0 2.797-2.018c1.162-1.15 2.014-2.508 2.466-3.925.508-1.595.636-3.198.379-4.766zm-6.413 9.601a2.519 2.519 0 0 0-1.636-.604c-1 0-1.866.59-2.293 1.45-.435.018-3.674.007-4.382-.043-.435-.837-1.29-1.407-2.274-1.407a2.52 2.52 0 0 0-1.705.67c-1.762-.589-3.425-1.593-4.67-3.296 3.678 0 2.952-4.242 3.428-6.758.725-3.833 4.399-6.411 7.964-6.908a9.5 9.5 0 0 1 1.31-.091c5.86 0 11.074 5.4 9.057 11.733-.745 2.337-2.708 4.267-4.8 5.254z" fill="#3D3D3D"/><path d="M27.738 34.182a.865.865 0 0 1-.85-.878c0-.485.38-.879.85-.879s.851.394.851.879a.865.865 0 0 1-.85.878zm-8.948 0a.865.865 0 0 1-.852-.878c0-.485.381-.879.851-.879s.851.394.851.879a.865.865 0 0 1-.85.878z" fill="#515252"/></g></svg>