<svg viewBox="0 0 48 48" xmlns="http://www.w3.org/2000/svg"><g fill="none"><path d="M26.918 6.143c-3.345-1.908-7.623-.775-9.555 2.53L3.418 32.675l12.112 6.79S29.392 15.728 29.477 15.58c1.933-3.305.785-7.53-2.56-9.437z" fill="#FBBC05"/><path d="M15.585 39.428c-1.92 3.357-6.25 4.595-9.578 2.655-3.327-1.94-4.505-6.143-2.584-9.5 1.92-3.358 6.214-4.598 9.54-2.66 3.325 1.937 4.545 6.147 2.622 9.505z" fill="#34A853"/><path d="M32.593 20.7l-6.915 11.95a6.889 6.889 0 0 0 2.533 9.426c3.307 1.905 7.537.775 9.447-2.525l6.916-11.95a6.893 6.893 0 0 0-2.533-9.425c-3.308-1.905-7.538-.775-9.448 2.525z" fill="#4285F4"/></g></svg>