<svg viewBox="0 0 48 48" xmlns="http://www.w3.org/2000/svg"><g fill="none" fill-rule="evenodd"><path d="M20.464 32.536l7.072-7.072 11 11a5 5 0 1 1-7.072 7.072l-11-11z" fill="#0066D9"/><path d="M9.464 36.464l11-11a5 5 0 1 1 7.072 7.072l-11 11a5 5 0 1 1-7.072-7.072z" fill="#4285F4"/><path d="M27.536 3.464l-7.072 7.072 11 11a5 5 0 1 0 7.072-7.072l-11-11z" fill="#EA4335"/><path d="M9.464 14.464l7.072 7.072 11-11a5 5 0 1 0-7.072-7.072l-11 11z" fill="#FBBC05"/><circle fill="#34A853" cx="13" cy="18" r="5"/></g></svg>