<svg viewBox="0 0 48 48" xmlns="http://www.w3.org/2000/svg"><g fill="none"><path d="M2 10.996A2.998 2.998 0 0 1 5.007 8h37.986A2.997 2.997 0 0 1 46 10.996v26.008A2.998 2.998 0 0 1 42.993 40H5.007A2.997 2.997 0 0 1 2 37.004V10.996z" fill="#E0E0E0"/><path fill="#F5F5F5" d="M5 11h38v26H5z"/><path d="M38.392 30H24l-5.92 10h-7.54V28.346C13.387 23.926 18.352 21 24 21c6.326 0 11.795 3.672 14.392 9z" fill="#EA4335"/><path d="M10.51 28.393L17.137 40H8.281A16.086 16.086 0 0 1 8 37c0-3.168.921-6.122 2.51-8.607z" fill="#34A853"/><path d="M38.137 29.5H24L29.94 40h9.78c.184-.972.28-1.975.28-3 0-2.71-.674-5.263-1.863-7.5z" fill="#FBBC05"/><path d="M17.124 40a7.5 7.5 0 1 1 13.752 0H17.124z" fill="#F1F1F1"/><path d="M18.803 40a6 6 0 1 1 10.395 0H18.802z" fill="#4285F4"/><path d="M46 11v13H2V11c0-1.65 1.35-3 3-3h38c1.65 0 3 1.35 3 3z" fill-opacity=".05" fill="#212121"/></g></svg>