<svg viewBox="0 0 48 48" xmlns="http://www.w3.org/2000/svg"><g fill="none" fill-rule="evenodd"><path d="M36 3H23.25A2.257 2.257 0 0 0 21 5.25v28.5A2.257 2.257 0 0 0 23.25 36h19.5A2.257 2.257 0 0 0 45 33.75V12l-5.25-3.75L36 3z" fill="#FBBC05"/><path d="M37.875 18h-9.75c-.619 0-1.125.506-1.125 1.125v9.75c0 .619.506 1.125 1.125 1.125h9.75c.619 0 1.125-.506 1.125-1.125v-9.75c0-.619-.506-1.125-1.125-1.125zm-.375 8.25h-9V21h9v5.25z" fill="#F5F5F5"/><path fill-opacity=".1" fill="#BF360C" d="M36.658 11.342L45 19.682V12z"/><path d="M36 3v6.75A2.25 2.25 0 0 0 38.25 12H45l-9-9z" fill="#FBDD81"/><path d="M27 7.5H14.25A2.257 2.257 0 0 0 12 9.75v28.5a2.257 2.257 0 0 0 2.25 2.25h19.5A2.257 2.257 0 0 0 36 38.25V16.5l-5.25-3.75L27 7.5z" fill="#34A853"/><path d="M18 24v10.5h12V24H18zm5.25 9H19.5v-1.5h3.75V33zm0-3H19.5v-1.5h3.75V30zm0-3H19.5v-1.5h3.75V27zm5.25 6h-3.75v-1.5h3.75V33zm0-3h-3.75v-1.5h3.75V30zm0-3h-3.75v-1.5h3.75V27z" fill="#F5F5F5"/><path fill-opacity=".1" fill="#000" d="M27.658 15.842L36 24.182V16.5z"/><path d="M27 7.5v6.75a2.25 2.25 0 0 0 2.25 2.25H36l-9-9z" fill="#97D2AF"/><path d="M18 12H5.25A2.257 2.257 0 0 0 3 14.25v28.5A2.257 2.257 0 0 0 5.25 45h19.5A2.257 2.257 0 0 0 27 42.75V21l-5.25-3.75L18 12z" fill="#4285F4"/><path fill-opacity=".1" fill="#000" d="M18.658 20.342L27 28.682V21z"/><path d="M9 36h12v-1.5H9V36zm0 3h9v-1.5H9V39zm0-10.5V30h12v-1.5H9zM9 33h12v-1.5H9V33z" fill="#F5F5F5"/><path d="M18 12v6.75A2.25 2.25 0 0 0 20.25 21H27l-9-9z" fill="#A1C2FA"/></g></svg>