<svg viewBox="0 0 48 48" xmlns="http://www.w3.org/2000/svg"><g fill="none" fill-rule="evenodd"><path d="M24 46c12.15 0 22-9.85 22-22V4.996A2.99 2.99 0 0 0 43.007 2H24C11.85 2 2 11.85 2 24s9.85 22 22 22z" fill="#1A73E8"/><path d="M28.331 45.574L13.88 31.12l16.24-14.24 5 5L36 17l9.82 9.82c-1.2 9.386-8.315 16.922-17.489 18.754z" fill-opacity=".1" fill="#000"/><path d="M36 17v14l-5-5v3c0 1.653-1.34 3-2.993 3H15.993A3.006 3.006 0 0 1 13 28.998v-9.996A3.006 3.006 0 0 1 15.993 16h12.014A2.998 2.998 0 0 1 31 19v3l5-5z" fill="#FFF"/><path fill-opacity=".1" fill="#000" d="M31 22l5-5v14l-5-5z"/></g></svg>