<svg viewBox="0 0 48 48" xmlns="http://www.w3.org/2000/svg"><g transform="translate(8 5)" fill="none"><path d="M34 19.5a5.5 5.5 0 0 0-11 0v13a5.5 5.5 0 0 0 11 0v-13z" fill="#4285F4"/><path d="M0 32.5a5.5 5.5 0 0 0 11 0V25L0 19.5v13z" fill="#EA4335"/><path d="M14.5 14h-9v11h9a5.5 5.5 0 0 0 0-11z" fill="#FBBC05"/><path d="M1.61 23.39L11 25v7.5c0 .091-.002.182-.007.272L1.61 23.39z" fill-opacity=".1" fill="#000"/><path d="M5.5 14a5.5 5.5 0 0 0 0 11H11v-5.5A5.5 5.5 0 0 0 5.5 14z" fill="#FA7B17"/><path d="M28.5 0h-23a5.5 5.5 0 0 0 0 11h23V0z" fill="#34A853"/><circle fill="#188038" cx="28.5" cy="5.5" r="5.5"/></g></svg>