<svg viewBox="0 0 48 48" xmlns="http://www.w3.org/2000/svg"><g fill="none"><path d="M39.5 39.612A21.93 21.93 0 0 1 24 46a21.931 21.931 0 0 1-15.558-6.445L16 16c.077-.079 7.929-2.598 23.555-7.558A21.931 21.931 0 0 1 46 24a21.93 21.93 0 0 1-6.388 15.5l-.111.112z" fill="#8CC349"/><path d="M8.388 8.5l.111-.112A21.93 21.93 0 0 1 24 2a21.93 21.93 0 0 1 15.5 6.388l.055.055-31.11 31.112-.204-.204A21.928 21.928 0 0 1 2 24 21.93 21.93 0 0 1 8.388 8.5z" fill="#258FCF"/><path fill="#E0E0E0" d="M17.245 16.642l3.527 6.568.588-.588-1.515-8.58-2.602-.237v2.837z"/><path d="M33.732 43.736L26 36.005l1.527-11.455 3.44 3.523.356-.232 3.573 3.689 4.664-4.048 4.82 4.821a22.028 22.028 0 0 1-4.768 7.198l-.111.111a22.06 22.06 0 0 1-5.77 4.124z" fill-opacity=".1" fill="#000"/><path d="M18.183 12.38l2.862-2.863a3.538 3.538 0 0 1 2.005-1 .592.592 0 0 1 .49.168c.123.122.19.3.168.49a3.538 3.538 0 0 1-1 2.005l-5.465 5.465-3.675 3.335.362 2.058-.588.587-1.247-2.495L9.6 18.883l.588-.588 2.057.362 3.335-3.675-6.568-3.527.588-.598 8.583 1.523zm11.966 18.264a1.648 1.648 0 0 1 0-3.294 1.648 1.648 0 0 1 0 3.294zm7.99-3.793c.945 0 1.861.766 1.861 1.713v7.44h-1.527V33.71H27.527v2.296H26V24.55h1.527v6.873h5.346V26.85h5.266z" fill="#F5F5F5"/></g></svg>