<svg viewBox="0 0 48 48" xmlns="http://www.w3.org/2000/svg"><g fill="none"><path d="M30.277 15.217L36 14l-.053-4.453A17.916 17.916 0 0 0 24 4.995c-8.297 0-15.295 5.642-17.37 13.293C7.068 17.985 12 19 12 19s4.415-2.785 4.617-2.742a9.98 9.98 0 0 1 13.66-1.04z" fill="#EA4335"/><path d="M41.375 18.297a18.027 18.027 0 0 0-5.43-8.752l-5.67 5.67A9.986 9.986 0 0 1 34 22.995v1c2.758 0 5 2.242 5 5s-2.242 5-5 5H24l-2.989 4.192L24 41.995h10c7.167 0 13-5.832 13-13 0-4.433-2.23-8.35-5.625-10.698z" fill="#4285F4"/><path d="M14 41.995h9.992v-8H14c-.735 0-1.43-.162-2.06-.45L6 34l.145 5.345A12.936 12.936 0 0 0 14 41.995z" fill="#34A853"/><path d="M14 15.995c-7.168 0-13 5.833-13 13 0 4.22 2.022 7.977 5.15 10.352l5.797-5.797A5.005 5.005 0 0 1 9 28.995c0-2.758 2.242-5 5-5a5.005 5.005 0 0 1 4.555 2.947l5.797-5.797c-2.375-3.128-6.132-5.15-10.352-5.15z" fill="#FBBC05"/></g></svg>