<svg viewBox="0 0 48 48" xmlns="http://www.w3.org/2000/svg"><g fill="none" fill-rule="evenodd"><circle fill="#EA4335" cx="24" cy="24.013" r="21.96"/><path d="M25.794 45.9L13.929 34.034l-2.765-2.765a9.908 9.908 0 0 1-3.135-7.256 9.91 9.91 0 0 1 1.059-4.482 9.985 9.985 0 0 1 8.923-5.5c2.695 0 4.941.989 6.677 2.605h.01l6.29 6.27 2.994-.011v-4.872h2.994l8.804 8.814c-1.311 10.21-9.635 18.226-19.986 19.063z" fill-opacity=".1" fill="#000"/><path d="M18 30a6.002 6.002 0 0 0 5.659-4H18v-4h9.8c.131.646.2 1.315.2 2 0 5.523-4.477 10-10 10S8 29.523 8 24s4.477-10 10-10c2.251 0 4.329.744 6 2l-2.876 2.876A6 6 0 1 0 18 30zm22.969-7.984v2.995h-3.993v3.993h-2.994V25.01h-3.993v-2.994h3.993v-3.994h2.994v3.993h3.993z" fill="#F5F5F5"/></g></svg>