<svg viewBox="0 0 48 48" xmlns="http://www.w3.org/2000/svg"><g fill="none"><path d="M39.557 39.557L31.78 31.78c-4.295 4.295-11.26 4.295-15.558 0l-7.777 7.777c8.59 8.59 22.52 8.59 31.112 0z" fill="#FBBC05"/><path d="M39.555 8.443l-7.777 7.78c4.294 4.294 4.294 11.257.002 15.552a5.492 5.492 0 0 0-1.573 4.556 5.5 5.5 0 0 0 9.46 3.111c8.48-8.601 8.44-22.447-.112-31z" fill="#EA4335"/><path d="M23.797 2A21.928 21.928 0 0 0 8.445 8.443c-8.593 8.592-8.59 22.522 0 31.112l7.777-7.777c-4.295-4.295-4.295-11.26 0-15.558 4.295-4.295 11.26-4.295 15.558 0a5.5 5.5 0 0 0 7.777-7.777A21.93 21.93 0 0 0 24.205 2h-.408z" fill="#4285F4"/><circle fill="#34A853" transform="rotate(-45 12.332 35.667)" cx="12.332" cy="35.667" r="5.5"/></g></svg>