<svg viewBox="0 0 48 48" xmlns="http://www.w3.org/2000/svg"><g fill="none" fill-rule="evenodd"><path d="M43 21c0-10.492-8.513-19-19-19C13.512 2 5 10.508 5 21c0 9.94 9.065 18 19 18v7c11.54-5.855 19-15.277 19-25z" fill="#00897B" fill-rule="nonzero"/><path d="M28.898 43.14C37.607 37.317 43 29.268 43 21l-7-7-.879 4.879-5-5L13.88 28.12 28.9 43.14z" fill-opacity=".1" fill="#000" fill-rule="nonzero"/><path d="M13 21v4.998A3.006 3.006 0 0 0 15.993 29h12.014A2.998 2.998 0 0 0 31 26v-3l5 5v-7l-14.5-3.5L13 21z" fill="#F5F5F5"/><path d="M13 16.002A3.006 3.006 0 0 1 15.993 13h12.014A2.998 2.998 0 0 1 31 16v3l5-5v7H13v-4.998z" fill="#E0E0E0"/></g></svg>