<svg viewBox="0 0 48 48" xmlns="http://www.w3.org/2000/svg"><g fill="none"><circle stroke="#E8EAED" stroke-width=".5" fill="#FFF" cx="24" cy="24" r="22"/><path d="M19.06 24.108c0-.343-.03-.67-.085-.986h-4.478v1.85h2.57a2.203 2.203 0 0 1-.95 1.445V27.6h1.525c.898-.828 1.418-2.045 1.418-3.492z" fill="#4285F4"/><path d="M14.5 28.75c1.283 0 2.358-.425 3.142-1.15l-1.524-1.183c-.428.288-.975.458-1.62.458-1.24 0-2.293-.837-2.67-1.965h-1.573v1.22a4.754 4.754 0 0 0 4.245 2.62z" fill="#34A853"/><path d="M11.83 24.91a2.835 2.835 0 0 1 0-1.82v-1.22h-1.572a4.719 4.719 0 0 0 .002 4.26l1.57-1.22z" fill="#FBBC05"/><path d="M14.5 21.125c.703 0 1.33.242 1.825.712l1.352-1.35c-.822-.767-1.894-1.237-3.177-1.237a4.741 4.741 0 0 0-4.24 2.62l1.572 1.22c.375-1.128 1.428-1.965 2.668-1.965z" fill="#EA4335"/><path d="M23.052 24.953v3.297H22V20h2.793c.71 0 1.312.24 1.807.72.502.48.755 1.065.755 1.755 0 .705-.253 1.295-.755 1.767-.488.473-1.09.708-1.808.708l-1.74.003zm6.93-2.595c.778 0 1.393.21 1.843.632.45.423.675 1.003.675 1.738v3.522h-1.008v-.802h-.044c-.436.65-1.015.977-1.74.977-.618 0-1.135-.185-1.55-.558a1.797 1.797 0 0 1-.623-1.395c0-.59.22-1.057.657-1.405.438-.347 1.023-.522 1.756-.522.625 0 1.14.115 1.544.347v-.244c0-.373-.145-.688-.434-.948-.29-.26-.63-.39-1.018-.39-.587 0-1.052.253-1.395.755l-.927-.593c.51-.742 1.265-1.114 2.265-1.114zm8.268.142l-3.513 8.207H33.65l1.305-2.872-2.31-5.335h1.145l1.67 4.093h.023l1.625-4.093h1.142zm-9.628 3.995c0 .28.118.512.35.697.233.186.505.28.818.28.443 0 .838-.167 1.185-.5.348-.332.52-.725.52-1.172-.328-.262-.785-.395-1.373-.395-.427 0-.785.105-1.07.315-.287.207-.43.465-.43.775zm-5.57-5.473v2.905h1.763c.42 0 .767-.142 1.043-.43.282-.287.422-.627.422-1.022a1.4 1.4 0 0 0-.422-1.013 1.364 1.364 0 0 0-1.043-.442l-1.763.003z" fill="#5F6368"/></g></svg>