<svg viewBox="0 0 48 48" xmlns="http://www.w3.org/2000/svg"><g fill="none" fill-rule="evenodd"><path d="M21.25 4.76A2.757 2.757 0 0 1 24 2a2.755 2.755 0 0 1 2.75 2.76v2.98A2.757 2.757 0 0 1 24 10.5a2.755 2.755 0 0 1-2.75-2.76V4.76zm0 35.5A2.757 2.757 0 0 1 24 37.5a2.755 2.755 0 0 1 2.75 2.76v2.98A2.757 2.757 0 0 1 24 46a2.755 2.755 0 0 1-2.75-2.76v-2.98zm0-24.265a2.75 2.75 0 0 1 5.5 0v16.01a2.75 2.75 0 0 1-5.5 0v-16.01z" fill="#FBBC05"/><path d="M11.5 31.51a2.757 2.757 0 0 1 2.75-2.76A2.755 2.755 0 0 1 17 31.51v2.98a2.757 2.757 0 0 1-2.75 2.76 2.755 2.755 0 0 1-2.75-2.76v-2.98zm0-18.016a2.749 2.749 0 0 1 2.75-2.744A2.743 2.743 0 0 1 17 13.494v9.762A2.749 2.749 0 0 1 14.25 26a2.743 2.743 0 0 1-2.75-2.744v-9.762z" fill="#EA4335"/><rect fill="#0066D9" x="2" y="19.75" width="5.5" height="8.5" rx="2.75"/><rect fill="#4285F4" x="40.5" y="19.75" width="5.5" height="8.5" rx="2.75"/><path d="M31 13.51a2.757 2.757 0 0 1 2.75-2.76 2.755 2.755 0 0 1 2.75 2.76v2.98a2.757 2.757 0 0 1-2.75 2.76A2.755 2.755 0 0 1 31 16.49v-2.98zm0 11.234A2.749 2.749 0 0 1 33.75 22a2.743 2.743 0 0 1 2.75 2.744v9.762a2.749 2.749 0 0 1-2.75 2.744A2.743 2.743 0 0 1 31 34.506v-9.762z" fill="#34A853"/></g></svg>