<svg viewBox="0 0 48 48" xmlns="http://www.w3.org/2000/svg"><g fill="none"><path d="M4.1 8.842c2.264-.944 4.878.094 5.839 2.318l10.088 23.352c.96 2.224-.095 4.792-2.359 5.736-2.264.945-4.878-.093-5.838-2.317L1.74 14.579c-.96-2.224.096-4.793 2.36-5.737z" fill="#4285F4"/><path d="M18.448 8.842c2.263-.944 4.877.094 5.838 2.318l10.088 23.352c.961 2.224-.095 4.792-2.359 5.736-2.263.945-4.877-.093-5.838-2.317L16.089 14.579c-.961-2.224.095-4.793 2.359-5.737z" fill="#FBBC05"/><ellipse fill="#EA4335" cx="42.3" cy="13.076" rx="4.7" ry="4.618"/><ellipse fill="#34A853" cx="37.847" cy="23.285" rx="4.7" ry="4.618"/></g></svg>