<svg viewBox="0 0 48 48" xmlns="http://www.w3.org/2000/svg"><g fill="none"><path d="M44.697 27.468c-.065-2.015-.657-9.693-.79-10.628a20.35 20.35 0 0 0-1.26-4.765c-.38-.952-.957-1.92-2.402-2.957C38.4 7.79 36.91 7.57 35.018 7.57c-1.32 0-2.22.077-2.803.117-4.743.323-9.07.84-13.23 1.583-3.69.658-6.475 1.393-9.03 2.385-1.908.74-3.397 1.675-4.555 2.863-1.885 1.93-2.38 3.704-1.97 5.837.557 2.895 1.46 9.587 1.502 9.953.203 1.775.51 3.86 1.236 5.86.802 2.21 2.285 3.55 4.537 4.092 1.457.352 2.957.235 4.908-.225 2.64-.62 5.27-1.222 7.942-1.715 4.525-.833 8.765-1.057 10.6-1.17.815-.05 2.79-.21 2.957-.23a16.38 16.38 0 0 0 1.608-.285c1.513-.335 2.617-1.112 3.655-2.102.5-.478 1.12-1.26 1.498-2.04.817-1.693.875-3.49.825-5.026z" fill="#EA4335"/><path d="M31.15 22.642c-.452.318-8.752 6.46-9.895 7.098-.418-1.53-1.633-9.36-1.735-11.22 1.775.213 9.343 2.895 11.63 4.122z" fill="#FFF"/></g></svg>