<svg viewBox="0 0 32 32" xmlns="http://www.w3.org/2000/svg"><g fill="none"><path d="M14.09 2.797l3.82 3.818L6.563 17.923a2.675 2.675 0 0 1-3.781-3.781L14.09 2.797zm-.007 11.307l3.813 3.82-5.762 5.736a2.648 2.648 0 0 1-3.769-.008c-1.051-1.051-1.093-2.747-.04-3.797l5.758-5.751z" fill="#4285F4"/><path d="M29.219 14.099a2.673 2.673 0 0 1 .001 3.775l.002.002-11.33 11.348-3.801-3.836 11.354-11.294.002.002a2.666 2.666 0 0 1 3.772.003zm-5.58-5.735a2.71 2.71 0 0 1 0 3.829c-.022.022-.046.041-.068.062l-5.662 5.656-3.818-3.818 5.664-5.66c.02-.023.04-.047.062-.07a2.7 2.7 0 0 1 3.823 0z" fill="#FBBC05"/><path d="M15.906 30a2.705 2.705 0 1 1 .188 0h-.188zm2.005-23.385a2.702 2.702 0 1 1-3.82-3.821 2.701 2.701 0 1 1 3.82 3.821zm-.002 11.296c-1.058 1.058-2.763 1.08-3.821.022a2.72 2.72 0 0 1 .003-3.84 2.703 2.703 0 0 1 3.826.01 2.68 2.68 0 0 1-.008 3.808z" fill="#34A853"/></g></svg>