<svg viewBox="0 0 32 32" xmlns="http://www.w3.org/2000/svg"><g fill="none"><path d="M17.857 4.372a4.464 4.464 0 0 0-6.08 1.622L2.901 21.38l7.708 4.353 8.876-15.31a4.416 4.416 0 0 0-1.63-6.05z" fill="#FBBC05"/><path d="M4.55 27.41a4.482 4.482 0 0 1-1.645-6.089c1.222-2.152 3.955-2.947 6.071-1.705 2.116 1.242 2.892 3.94 1.669 6.093-1.222 2.152-3.977 2.945-6.095 1.702z" fill="#34A853"/><path d="M21.468 13.704l-4.4 7.66a4.434 4.434 0 0 0 1.611 6.042 4.39 4.39 0 0 0 6.013-1.618l4.4-7.66a4.436 4.436 0 0 0-1.611-6.042 4.39 4.39 0 0 0-6.013 1.618z" fill="#4285F4"/></g></svg>