<svg viewBox="0 0 32 32" xmlns="http://www.w3.org/2000/svg" xmlns:xlink="http://www.w3.org/1999/xlink"><g transform="translate(5.666 9.667) scale(.66667)" fill="#FBBC05"><use xlink:href="#path0_fill"/><use xlink:href="#path1_fill"/></g><use xlink:href="#path2_fill" transform="translate(6.476 22.667) scale(.66667)" fill="#34A853"/><use xlink:href="#path3_fill" transform="translate(7.614 4.596) scale(.66667)" fill="#EA4335"/><use xlink:href="#path4_fill" transform="translate(5.333 11.563) scale(.66667)" fill="#4285F4"/><use xlink:href="#path5_fill" transform="translate(5.333 16.21) scale(.66667)" fill="#EEE"/><use xlink:href="#path6_fill" transform="translate(5.702 8.381) scale(.66667)" fill="#EEE"/><use xlink:href="#path7_fill" transform="translate(7.895 26.197) scale(.66667)" fill="#EEE"/><use xlink:href="#path8_fill" transform="translate(8.822 1.333) scale(.66667)" fill="#EEE"/><defs><path id="path0_fill" d="M0 14.5h31l-1 5H1l-1-5z"/><path id="path1_fill" d="M4.5 0H26l.5 5.5h-22V0z"/><path id="path2_fill" d="M2.127 5.296C5.062 9.224 9.415 6.5 14.285 6.5c4.868 0 9.222 2.724 12.157-1.204l2.127-3.591c-.916 0-7.783-1.725-14.284-1.705C7.423.022.912 1.788 0 1.705l2.127 3.59z"/><path id="path3_fill" d="M23.345 4.002C20.502-1.01 16.724.106 12.578.106 8.43.106 4.653-1.01 1.81 4.002L0 7.628c13.078-1.022 18.578.478 25.156 0l-1.811-3.626z"/><path id="path4_fill" d="M31.988 10.433l-.54-4.356-2.612-3.422s-5.542 1.5-6.336-.5c0 0-4.395.602-4.5.5l1 1.606-6-2.106c-.22.214-2.78.214-3 0l-3.5.5c-.15 0-4.31-5.973-4 0L.553 6.077l-.541 4.356c-.005.16-.012.325-.012.48 0 2.521 4.912-1.124 6 1.242 3.927 1.225.933-.5 6.25-.5 9.75-1.027 11.323 1.225 15.25 0 1.089-2.366 4.5 1.78 4.5-.743 0-.155-.007-.319-.012-.48z"/><path id="path5_fill" d="M31.988 3.464L28.44 0l-3.748 3.658a.568.568 0 0 1-.794 0L20.147 0l-3.75 3.658a.572.572 0 0 1-.794 0L11.853 0l-3.75 3.658a.568.568 0 0 1-.794 0L3.561 0 .011 3.463c-.004.16-.011.325-.011.48 0 2.522.627 5.08 1.715 7.447 3.927 1.225 8.967 1.94 14.285 1.94s10.357-.714 14.285-1.939C31.373 9.024 32 6.465 32 3.943c0-.155-.007-.319-.012-.48zM3.266 9.393c-1.215 0-2.2-.961-2.2-2.147s.985-2.147 2.2-2.147c1.215 0 2.2.961 2.2 2.147s-.985 2.147-2.2 2.147zm8.49 0c-1.216 0-2.2-.961-2.2-2.147s.984-2.147 2.2-2.147c1.214 0 2.2.961 2.2 2.147s-.986 2.147-2.2 2.147zm8.49 0c-1.216 0-2.201-.961-2.201-2.147s.985-2.147 2.2-2.147c1.215 0 2.2.961 2.2 2.147s-.985 2.147-2.2 2.147zm8.488 0c-1.215 0-2.2-.961-2.2-2.147s.985-2.147 2.2-2.147c1.215 0 2.2.961 2.2 2.147s-.985 2.147-2.2 2.147z"/><path id="path6_fill" d="M3.405 8.303l3.748 3.658 3.75-3.658a.571.571 0 0 1 .794 0l3.75 3.658 3.75-3.658a.572.572 0 0 1 .794 0l3.75 3.658 3.748-3.658a.588.588 0 0 1 .794 0l2.611 2.548c-.568-2.81-1.557-5.93-2.869-8.9C24.755.733 20.26 0 15.447 0S6.138.734 2.869 1.95C1.556 4.922.569 8.04 0 10.85l2.61-2.547a.589.589 0 0 1 .795 0zm20.282-6.08c1.215 0 2.2.961 2.2 2.147s-.985 2.147-2.2 2.147c-1.215 0-2.2-.961-2.2-2.147s.985-2.147 2.2-2.147zm-8.24 0c1.215 0 2.2.961 2.2 2.147s-.985 2.147-2.2 2.147c-1.215 0-2.2-.961-2.2-2.147s.985-2.147 2.2-2.147zm-8.24 0c1.216 0 2.2.961 2.2 2.147s-.984 2.147-2.2 2.147c-1.214 0-2.2-.961-2.2-2.147s.986-2.147 2.2-2.147z"/><path id="path7_fill" d="M0 0c2.935 3.929 7.288 6.705 12.158 6.705 4.868 0 9.221-2.776 12.156-6.705-3.623.817-7.78 1.272-12.156 1.272C7.78 1.272 3.623.817 0 0z"/><path id="path8_fill" d="M21.534 8.896C18.69 3.883 14.913 0 10.767 0 6.62 0 2.842 3.883 0 8.896c3.15-.8 6.853-1.248 10.767-1.248 3.914 0 7.617.449 10.767 1.248z"/></defs></svg>