<svg viewBox="0 0 32 32" xmlns="http://www.w3.org/2000/svg"><g fill="none" fill-rule="evenodd"><path d="M13.696 21.884l4.605-4.605 7.163 7.163a3.256 3.256 0 0 1-4.605 4.604l-7.163-7.162z" fill="#0066D9"/><path d="M6.534 24.442l7.162-7.163a3.256 3.256 0 0 1 4.605 4.605l-7.163 7.162a3.256 3.256 0 0 1-4.604-4.604z" fill="#4285F4"/><path d="M18.3 2.954l-4.604 4.604 7.163 7.163a3.256 3.256 0 0 0 4.605-4.605L18.3 2.954z" fill="#EA4335"/><path d="M6.534 10.116l4.604 4.605 7.163-7.163a3.256 3.256 0 0 0-4.605-4.604l-7.162 7.162z" fill="#FBBC05"/><circle fill="#34A853" cx="8.836" cy="12.419" r="3.256"/></g></svg>