<svg viewBox="0 0 32 32" xmlns="http://www.w3.org/2000/svg"><g fill="none"><path d="M4.997 16v10.105c0 1.047.84 1.895 1.875 1.895h20.253A1.885 1.885 0 0 0 29 26.105V16H4.997z" fill="#F44336"/><path d="M6.87 4a1.885 1.885 0 0 0-1.875 1.895V16H29V5.895C29 4.848 28.16 4 27.125 4H6.87z" fill="#2196F3"/><path d="M23 4v24h4.2c.994 0 1.8-.848 1.8-1.895V5.895C29 4.848 28.194 4 27.2 4H23z" fill="#3D3D3D"/><path d="M5.9 23.003c-.578 0-1.125-.316-1.485-.766a1.892 1.892 0 0 1-.368-1.603L4.997 16H23l.956 4.634a1.892 1.892 0 0 1-.368 1.603c-.36.45-.907.766-1.485.766H5.9z" fill="#FFC107"/><path d="M16.871 28h10.254A1.885 1.885 0 0 0 29 26.105v-10.72l-5.622-5.681L21.968 16H4.997l11.875 12z" fill-opacity=".1" fill="#000"/><path d="M5.898 9c-.578 0-1.124.315-1.485.766-.36.45-.496 1.04-.367 1.602l.95 4.635h18.002l.956-4.635a1.892 1.892 0 0 0-.368-1.602c-.36-.45-.907-.766-1.484-.766H5.898z" fill="#2BAD2F"/></g></svg>