<svg viewBox="0 0 32 32" xmlns="http://www.w3.org/2000/svg"><g fill="none"><path d="M13.008 9.113L4 19.203v5.37A3.428 3.428 0 0 0 7.428 28H24.57c1.277 0 2.39-.701 2.979-1.737v-.23L13.008 9.113z" fill="#34A853"/><path d="M24.125 4H7.428A3.428 3.428 0 0 0 4 7.428v.797l8.06 9.396L24.125 4z" fill="#EA4335"/><path d="M28 7.428A3.428 3.428 0 0 0 24.572 4h-.674l-12.526 9.714 16.18 12.55A3.405 3.405 0 0 0 28 24.571V7.428z" fill="#4285F4"/><path d="M4 7.998v11.431l7.37-5.715L4 7.998z" fill="#FBBC05"/><circle fill="#FFF" cx="16" cy="13.789" r="6.632"/><circle fill="#4285F4" cx="16" cy="13.789" r="3.947"/></g></svg>