<svg viewBox="0 0 32 32" xmlns="http://www.w3.org/2000/svg"><g fill="none" fill-rule="evenodd"><path d="M16 30c5.523 0 10-4.559 10-10.182L16 9.636c-5.523 0-10 4.559-10 10.182S10.477 30 16 30z" fill="#0A8BD2"/><path d="M11 8.947c0-.523.426-.947.94-.947h3.12a.94.94 0 0 1 .94.93V10l3.125 7.91L11 19.817V8.948z" fill="#F7C438"/><path d="M16 5.933A.94.94 0 0 1 16.94 5h3.12c.519 0 .94.421.94.93v.887l2.493 5.365L21 19.818l-5-5.09V5.932z" fill="#0FD3B5"/><path d="M21 2.933A.94.94 0 0 1 21.94 2h3.12a.94.94 0 0 1 .94.933v16.885h-5V2.933z" fill="#0A8BD2"/><path d="M25.661 22.455l-6.125-6.237-7.072 7.2 6.126 6.237c3.441-.937 6.151-3.696 7.071-7.2z" fill-opacity=".1" fill="#000"/><ellipse fill="#FFF" cx="16" cy="19.818" rx="5" ry="5.091"/></g></svg>