<svg viewBox="0 0 32 32" xmlns="http://www.w3.org/2000/svg"><g fill="none" fill-rule="evenodd"><path d="M20 16.5a3.5 3.5 0 0 1 7 0v8a3.5 3.5 0 0 1-7 0v-8z" fill="#4285F4" fill-rule="nonzero"/><path d="M5 16.5l7 3.5v4.5a3.5 3.5 0 0 1-7 0v-8z" fill="#EA4335" fill-rule="nonzero"/><path d="M14.5 13h-6l3.5 7h2.5a3.5 3.5 0 0 0 0-7z" fill="#FBBC05"/><path d="M6.025 18.975L12 20v4.5a3.7 3.7 0 0 1-.025.424l-5.95-5.95z" fill-opacity=".1" fill="#000" fill-rule="nonzero"/><path d="M8.5 20H12v-3.5A3.5 3.5 0 1 0 8.5 20z" fill="#FA7B17" fill-rule="nonzero"/><path d="M23.5 4h-15a3.5 3.5 0 0 0 0 7h15V4z" fill="#34A853" fill-rule="nonzero"/><circle fill="#188038" fill-rule="nonzero" cx="23.5" cy="7.5" r="3.5"/></g></svg>