<svg viewBox="0 0 32 32" xmlns="http://www.w3.org/2000/svg"><g fill="none"><path d="M25.864 25.935A13.956 13.956 0 0 1 16 30a13.956 13.956 0 0 1-9.9-4.101l3.9-15.9 15.899-3.9A13.956 13.956 0 0 1 30 16c0 3.848-1.552 7.333-4.065 9.864l-.071.07z" fill="#8CC349"/><path d="M6.065 6.136l.071-.07A13.956 13.956 0 0 1 16 2c3.848 0 7.333 1.552 9.864 4.065l.035.035L6.1 25.899l-.13-.13A13.954 13.954 0 0 1 2 16c0-3.848 1.552-7.333 4.065-9.864z" fill="#258FCF"/><path fill="#E0E0E0" d="M11.701 11.318l2.245 4.18.374-.375-.964-5.46-1.656-.15v1.805z"/><path d="M21.76 28.764L17 24.004l.982-7.364 2.21 2.265.23-.15 2.297 2.372 2.998-2.602 3.105 3.106a14.026 14.026 0 0 1-2.887 4.233l-.071.07a14.028 14.028 0 0 1-4.104 2.83z" fill-opacity=".1" fill="#000"/><path d="M12.298 8.605l1.822-1.821a2.251 2.251 0 0 1 1.275-.636.376.376 0 0 1 .419.418 2.251 2.251 0 0 1-.636 1.276L11.7 11.32l-2.34 2.122.23 1.31-.373.373-.794-1.588-1.588-.794.374-.373 1.31.23 2.122-2.338-4.18-2.245.374-.38 5.462.968zm7.37 11.952a1.06 1.06 0 1 1 0-2.118 1.06 1.06 0 0 1 0 2.118zm5.136-2.438c.607 0 1.196.493 1.196 1.102v4.783h-.982v-1.476h-7.036v1.476H17V16.64h.982v4.418h3.436V18.12h3.386z" fill="#F5F5F5"/></g></svg>