<svg viewBox="0 0 32 32" xmlns="http://www.w3.org/2000/svg" xmlns:xlink="http://www.w3.org/1999/xlink"><defs><circle id="a" cx="16" cy="16" r="5"/></defs><g fill="none" fill-rule="evenodd"><path d="M5 6c0-.552.504-1 1.125-1h3.75C10.496 5 11 5.448 11 6v3H5V6z" fill="#9E9E9E"/><path d="M26.92 7H5.08C3.931 7 3 7.896 3 9v14c0 1.105.931 2 2.08 2h21.84c1.149 0 2.08-.895 2.08-2V9c0-1.104-.931-2-2.08-2z" fill="#E0E0E0"/><circle fill="#9E9E9E" cx="26" cy="10" r="1"/><path d="M15.739 25H26.92c1.149 0 2.08-.895 2.08-2v-3.262l-8.369-8.368-9.262 9.26 4.37 4.37z" fill-opacity=".1" fill="#000"/><path d="M16 9.45c3.618 0 6.55 2.93 6.55 6.55a6.55 6.55 0 1 1-13.1 0A6.55 6.55 0 0 1 16 9.45z" fill="#F5F5F5"/><mask id="b" fill="#fff"><use xlink:href="#a"/></mask><path d="M22.5 16a6.48 6.48 0 0 1-1.676 4.356L16 16v-2l6.047-.383A6.49 6.49 0 0 1 22.5 16z" fill="#3F51B5" fill-rule="nonzero" mask="url(#b)"/><path d="M14.64 22.356a6.503 6.503 0 0 0 6.184-2L17.733 15 16 16l-1.36 6.356z" fill="#4285F4" fill-rule="nonzero" mask="url(#b)"/><path d="M9.815 18a6.51 6.51 0 0 0 4.825 4.356L17.733 17 16 16l-6.185 2z" fill="#34A853" fill-rule="nonzero" mask="url(#b)"/><path d="M11.176 11.644A6.48 6.48 0 0 0 9.5 16c0 .698.111 1.37.315 2H16v-2l-4.824-4.356z" fill="#FBBC05" fill-rule="nonzero" mask="url(#b)"/><path d="M16 16l-1.25-1.084 2.61-5.272a6.503 6.503 0 0 0-6.184 2L14.267 17 16 16z" fill="#FB8C00" fill-rule="nonzero" mask="url(#b)"/><path d="M22.185 14H16v2l-1.732-1 3.092-5.356A6.512 6.512 0 0 1 22.185 14z" fill="#EA4335" fill-rule="nonzero" mask="url(#b)"/><circle fill="#EEE" fill-rule="nonzero" mask="url(#b)" cx="16" cy="16" r="2"/></g></svg>