<svg viewBox="0 0 32 32" xmlns="http://www.w3.org/2000/svg"><g fill="none"><path d="M28.485 16.295c0-.975-.095-1.905-.26-2.795H16v4.995h7.02a6.011 6.011 0 0 1-2.62 4.095v3.27h4.215c2.455-2.26 3.87-5.61 3.87-9.565z" fill="#4285F4"/><path d="M16 29c3.51 0 6.465-1.155 8.615-3.14L20.4 22.59c-1.16.78-2.65 1.24-4.4 1.24-3.385 0-6.25-2.285-7.275-5.36h-4.34v3.37C6.525 26.085 10.92 29 16 29z" fill="#34A853"/><path d="M8.725 18.47A7.798 7.798 0 0 1 8.32 16c0-.86.145-1.69.405-2.47v-3.37h-4.34A12.953 12.953 0 0 0 3 16c0 2.1.5 4.08 1.385 5.835l4.34-3.365z" fill="#FBBC05"/><path d="M16 8.17c1.91 0 3.62.66 4.97 1.945l3.725-3.725C22.445 4.29 19.505 3 16 3c-5.08 0-9.475 2.915-11.615 7.165l4.34 3.37C9.75 10.455 12.615 8.17 16 8.17z" fill="#EA4335"/></g></svg>