<svg viewBox="0 0 32 32" xmlns="http://www.w3.org/2000/svg"><g fill="none"><path d="M25.9 25.9l-4.95-4.95a7.002 7.002 0 0 1-9.9 0L6.102 25.9c5.467 5.467 14.331 5.467 19.8 0z" fill="#FBBC05"/><path d="M25.899 6.1l-4.95 4.95a7 7 0 0 1 .002 9.898 3.495 3.495 0 0 0-1.001 2.899 3.5 3.5 0 0 0 6.02 1.98c5.396-5.474 5.371-14.285-.071-19.727z" fill="#EA4335"/><path d="M15.871 2a13.954 13.954 0 0 0-9.77 4.1c-5.468 5.468-5.466 14.332 0 19.799l4.95-4.95a7.002 7.002 0 0 1 0-9.9 7.002 7.002 0 0 1 9.9 0A3.5 3.5 0 0 0 25.9 6.1c-2.7-2.7-6.23-4.066-9.77-4.1h-.26z" fill="#4285F4"/><circle fill="#34A853" transform="rotate(-45 8.575 23.425)" cx="8.575" cy="23.425" r="3.5"/></g></svg>