<svg viewBox="0 0 32 32" xmlns="http://www.w3.org/2000/svg"><g fill="none" fill-rule="evenodd"><path d="M29 13.955C29 6.8 23.176 1 16 1S3 6.8 3 13.955c0 6.777 6.202 12.272 13 12.272V31c7.896-3.992 13-10.416 13-17.045z" fill="#00897B" fill-rule="nonzero"/><path d="M18.92 29.333L16 26.414v-.187l-.188-.001-7.52-7.519 12.415-9.414 3 3L24 10l4.96 4.96c-.419 5.415-4.19 10.615-10.04 14.373z" fill-opacity=".1" fill="#000"/><path d="M8 14v4a1 1 0 0 0 .999 1H20a.999.999 0 0 0 1-1.01V15l3 3v-4l-11-2-5 2z" fill="#F5F5F5"/><path d="M8 11.998V9.995c0-.54.447-.995.999-.995H20c.552 0 .999.452.999 1.01V13l3-3v4H8v-2.002z" fill="#E0E0E0"/></g></svg>