<svg viewBox="0 0 32 32" xmlns="http://www.w3.org/2000/svg"><g fill="none"><path d="M24 19.923a.686.686 0 0 1-.686.682H8.797a.686.686 0 0 1-.686-.682V5.681c0-.374.309-.681.686-.681h14.517c.377 0 .686.307.686.681v14.242z" fill="#0C9D58"/><path d="M11.634 19.486c-.098.366.098.74.436.83l13.446 3.616c.337.09.693-.134.79-.5l3.168-11.823c.098-.365-.098-.74-.435-.83L15.593 7.164c-.338-.09-.694.135-.792.501l-3.167 11.822z" fill="#EA4335"/><path d="M24 8.66v.761l-5.44-1.46 5.44.7zm-7.682-2.918c.317-.148.706.013.867.356v.01L8.079 9.42l8.24-3.678zM26.444 15.83l.708 4.296-.708 2.64V15.83zM18.56 7.965l.665.178.425 2.815-1.09-2.993z" fill-opacity=".1" fill="#000"/><path d="M22.223 18.03c.13.356-.033.744-.36.865L7.674 24.06c-.328.12-.703-.073-.832-.43L2.655 12.128c-.13-.356.034-.744.361-.865l14.188-5.164c.329-.119.703.074.833.43l4.186 11.502z" fill="#FFC107"/><path d="M26.444 26.313a.689.689 0 0 1-.687.687H6.354a.689.689 0 0 1-.687-.688V11.646a.69.69 0 0 1 .687-.688h19.403a.69.69 0 0 1 .687.688v14.666z" fill="#4285F4"/><path d="M22.74 16.764h-5.806v-1.528h5.806c.168 0 .305.138.305.306v.916a.306.306 0 0 1-.305.306zm0 5.805h-5.806v-1.527h5.806c.168 0 .305.137.305.305v.917a.306.306 0 0 1-.305.305zm.916-2.902h-6.722v-1.528h6.722c.168 0 .306.137.306.305v.917a.306.306 0 0 1-.306.306zM11.74 18.292h3.452c.035.223.058.455.058.695 0 2.094-1.393 3.582-3.51 3.582a3.668 3.668 0 0 1 0-7.333c.988 0 1.818.364 2.453.955l-1.046 1.047a1.993 1.993 0 0 0-1.407-.55c-1.201 0-2.174 1.014-2.174 2.215 0 1.2.973 2.215 2.174 2.215 1.075 0 1.813-.608 1.977-1.448H11.74v-1.378z" fill="#FFF"/></g></svg>