<svg viewBox="0 0 32 32" xmlns="http://www.w3.org/2000/svg"><defs><linearGradient x1="50.003%" y1="100.779%" x2="50.003%" y2="-.041%" id="a"><stop stop-color="#1A73E8" offset="0%"/><stop stop-color="#4285F4" offset="100%"/></linearGradient></defs><g fill="none"><path d="M21 23.721v2.84a3.005 3.005 0 0 1-3 3.01c-1.657 0-3-1.347-3-3.01v-7.435L19 19l2 4.721z" fill="#34A853"/><path fill="url(#a)" d="M21 23.721l-6-4.595V11.88l6-6.38z"/><path d="M16.09 3.178c.036-.03.075-.06.113-.088L15 11.88l-2.548 2.109a2.962 2.962 0 0 1-1.903.686c-.863 0-1.72-.372-2.31-1.094a3.018 3.018 0 0 1 .406-4.234l7.444-6.169z" fill="#FBBC04"/><path d="M20.998 5.396a2.998 2.998 0 0 1-1.09 2.423L15 11.878V5.501a3.005 3.005 0 0 1 1.368-2.523c.026-.017.05-.034.077-.05a1.94 1.94 0 0 1 .144-.082l.133-.066.11-.051c.045-.019.09-.037.137-.054.045-.017.093-.032.139-.048a3.19 3.19 0 0 1 .264-.069c.026-.006.054-.01.083-.017l.06-.01a2.52 2.52 0 0 1 .233-.028c.034-.003.067-.007.101-.008.05-.002.1-.003.151-.003h.002a3.222 3.222 0 0 1 .484.04 2.24 2.24 0 0 1 .317.07 2.68 2.68 0 0 1 .5.188 3.109 3.109 0 0 1 .61.392c.035.031.07.06.105.093l.004.003.101.098.1.104a2.765 2.765 0 0 1 .295.385l.05.076c.03.048.058.099.083.145.018.037.047.097.066.132a3.484 3.484 0 0 1 .103.248 3.404 3.404 0 0 1 .143.552c.006.034.01.068.014.102a2.253 2.253 0 0 1 .022.228c-.002.015 0 .032 0 .048z" fill="#EA4335"/></g></svg>