<svg viewBox="0 0 32 32" xmlns="http://www.w3.org/2000/svg"><g fill="none"><circle stroke="#E8EAED" stroke-width=".5" fill="#FFF" cx="16" cy="16" r="14"/><path d="M12.856 16.068a3.62 3.62 0 0 0-.054-.626H9.953v1.177h1.635c-.07.38-.283.703-.604.92v.752h.97c.571-.527.902-1.301.902-2.223z" fill="#4285F4"/><path d="M9.955 19.023c.816 0 1.5-.27 2-.732l-.971-.753c-.272.183-.62.292-1.031.292-.79 0-1.459-.533-1.7-1.25h-1v.775c.5.988 1.52 1.668 2.702 1.668z" fill="#34A853"/><path d="M8.255 16.58a1.804 1.804 0 0 1 0-1.16v-.775h-1a3.003 3.003 0 0 0 .001 2.71l1-.776z" fill="#FBBC05"/><path d="M9.955 14.17c.447 0 .846.155 1.16.454l.862-.86a2.899 2.899 0 0 0-2.022-.787 3.02 3.02 0 0 0-2.699 1.668l1.001.776c.239-.718.908-1.25 1.698-1.25z" fill="#EA4335"/><path d="M15.397 16.606v2.099h-.67v-5.25h1.777c.452 0 .836.152 1.15.458.32.305.481.677.481 1.117 0 .448-.16.824-.48 1.124-.31.301-.694.45-1.15.45l-1.108.002zm4.41-1.651c.495 0 .886.133 1.173.402.286.27.43.638.43 1.106v2.242h-.642v-.511h-.029c-.277.414-.646.622-1.107.622-.393 0-.722-.118-.986-.355a1.144 1.144 0 0 1-.396-.888c0-.375.14-.673.418-.894.278-.22.65-.332 1.117-.332.398 0 .725.073.983.221v-.156a.78.78 0 0 0-.277-.603.94.94 0 0 0-.647-.248c-.374 0-.67.16-.888.48l-.59-.377c.324-.472.805-.71 1.441-.71zm5.261.09l-2.235 5.223h-.692l.83-1.828-1.47-3.395h.729l1.063 2.605h.014l1.034-2.605h.727zm-6.126 2.543c0 .178.074.326.222.444a.812.812 0 0 0 .52.178c.282 0 .534-.107.755-.318.22-.212.33-.462.33-.747-.208-.167-.499-.25-.873-.25-.272 0-.5.066-.68.2-.184.132-.274.295-.274.493zm-3.545-3.483v1.849h1.122c.267 0 .488-.09.663-.274.18-.183.269-.4.269-.65a.889.889 0 0 0-.269-.645.868.868 0 0 0-.663-.281l-1.122.001z" fill="#5F6368"/></g></svg>