<svg viewBox="0 0 32 32" xmlns="http://www.w3.org/2000/svg"><g fill="none" fill-rule="evenodd"><path d="M14.25 3.741C14.25 2.78 15.027 2 16 2c.966 0 1.75.775 1.75 1.741v1.927c0 .962-.777 1.741-1.75 1.741-.966 0-1.75-.775-1.75-1.741V3.74zm0 22.591c0-.962.777-1.741 1.75-1.741.966 0 1.75.775 1.75 1.741v1.927C17.75 29.22 16.973 30 16 30c-.966 0-1.75-.775-1.75-1.741v-1.927zm0-15.426c0-.965.777-1.747 1.75-1.747.966 0 1.75.775 1.75 1.747v10.188c0 .965-.777 1.747-1.75 1.747-.966 0-1.75-.775-1.75-1.747V10.906z" fill="#FBBC05"/><path d="M8.045 20.764c0-.962.777-1.741 1.75-1.741.967 0 1.75.775 1.75 1.741v1.927a1.74 1.74 0 0 1-1.75 1.74c-.966 0-1.75-.774-1.75-1.74v-1.927zm0-11.438a1.75 1.75 0 1 1 3.5 0v6.19a1.75 1.75 0 1 1-3.5 0v-6.19z" fill="#EA4335"/><rect fill="#4285F4" x="26.5" y="13.295" width="3.5" height="5.409" rx="1.75"/><rect fill="#0066D9" x="2" y="13.295" width="3.5" height="5.409" rx="1.75"/><path d="M20.455 9.31c0-.962.776-1.742 1.75-1.742.966 0 1.75.775 1.75 1.741v1.927c0 .962-.777 1.741-1.75 1.741-.967 0-1.75-.775-1.75-1.741V9.309zm0 7.175a1.75 1.75 0 1 1 3.5 0v6.19a1.75 1.75 0 1 1-3.5 0v-6.19z" fill="#34A853"/></g></svg>