<svg viewBox="0 0 32 32" xmlns="http://www.w3.org/2000/svg"><defs><linearGradient x1="50%" y1="18.451%" x2="50%" y2="100%" id="a"><stop stop-color="#F2F6F7" offset="0%"/><stop stop-color="#D3E1E9" offset="100%"/></linearGradient></defs><g fill="none"><rect fill="#74D0EB" x="4" y="4" width="24" height="24" rx="2"/><ellipse fill="#2E6C88" cx="16.213" cy="23.895" rx="7.007" ry="1"/><ellipse fill="#2E6C88" opacity=".6" cx="18.751" cy="23.517" rx="2.246" ry="1"/><ellipse fill="#2E6C88" opacity=".6" cx="13.001" cy="23.517" rx="2.246" ry="1"/><path d="M15.627 21.214c-2.1 0-5.092-.277-6.837-2.675a.424.424 0 0 1-.038-.431.396.396 0 0 1 .355-.228c1.29 0 1.456-.993 1.575-2.63.03-.42.06-.816.128-1.178.226-1.201.892-2.283 1.924-3.128a6.711 6.711 0 0 1 3.274-1.434c.281-.04.568-.06.853-.06 2.035 0 4.016 1.026 5.17 2.678 1.037 1.485 1.298 3.279.736 5.052-.499 1.57-1.88 2.994-3.52 3.628-.923.357-1.958.406-2.939.406h-.403a16.754 16.754 0 0 0-.278 0z" fill="url(#a)"/><ellipse stroke="#979797" stroke-width=".75" fill="#D8D8D8" cx="13.165" cy="22.107" rx="1" ry="1"/><ellipse stroke="#979797" stroke-width=".75" fill="#D8D8D8" cx="18.898" cy="22.107" rx="1" ry="1"/><path d="M15.957 14.068a.813.813 0 0 1-.8.826.814.814 0 0 1-.801-.826c0-.456.358-.825.8-.825.442 0 .8.37.8.825m3.671 0a.813.813 0 0 1-.8.826.814.814 0 0 1-.801-.826c0-.456.358-.825.8-.825.442 0 .8.37.8.825m-2.692 4.357c-1.34 0-2.546-.904-2.768-2.087a.423.423 0 0 1 .327-.496.412.412 0 0 1 .482.336c.13.695.94 1.428 2.018 1.399 1.123-.03 1.866-.722 2.018-1.39a.412.412 0 0 1 .495-.315.424.424 0 0 1 .307.51c-.125.544-.466 1.05-.96 1.421a3.176 3.176 0 0 1-1.919.622" fill="#3D3D3D"/><path d="M23.707 14.513a6.209 6.209 0 0 0-1.058-2.578A7.008 7.008 0 0 0 16.968 9a6.81 6.81 0 0 0-.938.065 7.366 7.366 0 0 0-3.586 1.566c-1.146.935-1.886 2.136-2.14 3.475-.074.398-.107.838-.138 1.264-.049.667-.099 1.356-.304 1.806-.14.308-.35.513-.916.513a.819.819 0 0 0-.735.47.87.87 0 0 0 .08.888c.852 1.167 1.965 1.874 3.136 2.3a1.728 1.728 0 0 0-.083.529c0 .928.729 1.681 1.628 1.681.877 0 1.59-.716 1.625-1.613.382.021 2.2.027 2.403.02.045.888.754 1.593 1.624 1.593.9 0 1.629-.753 1.629-1.681 0-.212-.04-.413-.11-.6a6.97 6.97 0 0 0 1.768-1.274c.734-.727 1.272-1.584 1.557-2.48a6.416 6.416 0 0 0 .24-3.01zm-4.05 6.064a1.59 1.59 0 0 0-1.033-.382 1.62 1.62 0 0 0-1.448.916c-.275.011-2.32.004-2.768-.028a1.622 1.622 0 0 0-1.436-.888c-.414 0-.79.16-1.077.423-1.112-.372-2.163-1.006-2.949-2.082 2.323 0 1.864-2.679 2.165-4.267.458-2.422 2.778-4.05 5.03-4.364.276-.038.553-.057.827-.057 3.7 0 6.994 3.41 5.72 7.41-.47 1.476-1.71 2.695-3.03 3.319z" fill="#3D3D3D"/><path d="M18.624 22.43a.546.546 0 0 1-.537-.554c0-.306.24-.555.537-.555.297 0 .538.249.538.555a.547.547 0 0 1-.538.555zm-5.652 0a.546.546 0 0 1-.537-.554c0-.306.24-.555.537-.555.297 0 .537.249.537.555 0 .306-.24.555-.537.555z" fill="#515252"/></g></svg>