<svg viewBox="0 0 32 32" xmlns="http://www.w3.org/2000/svg"><g fill="none"><path d="M2.734 5.895c1.509-.63 3.251.062 3.892 1.545l6.725 15.568c.64 1.483-.063 3.195-1.572 3.824-1.51.63-3.252-.062-3.893-1.545L1.161 9.72c-.64-1.483.063-3.195 1.573-3.824z" fill="#4285F4"/><path d="M12.298 5.895c1.51-.63 3.252.062 3.893 1.545l6.725 15.568c.64 1.483-.063 3.195-1.572 3.824-1.51.63-3.252-.062-3.893-1.545L10.726 9.72c-.64-1.483.063-3.195 1.572-3.824z" fill="#FBBC05"/><ellipse fill="#EA4335" cx="28.2" cy="8.717" rx="3.133" ry="3.079"/><ellipse fill="#34A853" cx="25.231" cy="15.523" rx="3.133" ry="3.079"/></g></svg>