<svg viewBox="0 0 32 32" xmlns="http://www.w3.org/2000/svg"><g fill="none" fill-rule="evenodd"><circle fill="#4285F4" cx="16" cy="16" r="14"/><path d="M16.409 29.994L7.01 20.595c.445.474 5.58-9.709 5.58-9.709s8.475.21 8.082-.245l8.903 8.796c-1.5 5.944-6.801 10.375-13.166 10.557z" fill-opacity=".1" fill="#000" fill-rule="nonzero"/><path d="M22.136 13.972h-.01A6.16 6.16 0 0 0 16 8.5a6.165 6.165 0 0 0-5.821 4.127 4.766 4.766 0 0 0-4.406 4.747 4.768 4.768 0 0 0 4.772 4.762l.05-.001v.001h11.541a4.087 4.087 0 0 0 4.091-4.082 4.087 4.087 0 0 0-4.09-4.082zM18.046 16v3.41h-4.092V16h-2.046L16 11.91 20.09 16h-2.045z" fill="#F5F5F5" fill-rule="nonzero"/></g></svg>