<svg viewBox="0 0 32 32" xmlns="http://www.w3.org/2000/svg"><g fill="none" fill-rule="evenodd"><path d="M13.757 18.243l6.994-.047a9.515 9.515 0 0 1-15.964 9.018l4.485-4.486a3.172 3.172 0 0 0 4.485-4.485z" fill="#34A853"/><path d="M18.243 13.757a3.172 3.172 0 1 0 4.485-4.485l4.485-4.485a9.515 9.515 0 0 1-13.456 13.456l4.486-4.486z" fill="#5BB974"/><path d="M22.728 9.272a3.172 3.172 0 0 0-4.485 4.485l-7.213-1.173a9.515 9.515 0 0 1 16.183-7.797 3.172 3.172 0 1 1-4.485 4.485z" fill="#1D8B3D"/><path d="M9.272 22.728a3.172 3.172 0 0 1 4.485-4.485l4.49-.004-.004-4.482A9.515 9.515 0 0 0 4.787 27.213a3.172 3.172 0 1 0 4.485-4.485z" fill="#5BB974"/></g></svg>