<svg viewBox="0 0 32 32" xmlns="http://www.w3.org/2000/svg"><g fill="none" fill-rule="evenodd"><path d="M29 13.955C29 6.8 23.176 1 16 1S3 6.8 3 13.955c0 6.777 6.202 12.272 13 12.272V31c7.896-3.992 13-10.416 13-17.045z" fill="#00897B" fill-rule="nonzero"/><path d="M20.558 28.203l-9.66-9.66L10 10.667 14.667 7l6.395 1.483 7.74 7.74c-.771 4.434-3.758 8.658-8.244 11.98z" fill-opacity=".1" fill="#000"/><path d="M17.901 10h1.63v4.649c0 .877.292 1.273.895 1.273.728 0 1.111-.772 1.111-2.407 0-1.516-.534-2.806-1.607-3.878-1.072-1.073-2.374-1.608-3.914-1.608s-2.842.535-3.914 1.608c-1.073 1.072-1.607 2.362-1.607 3.878 0 1.528.534 2.823 1.607 3.896C13.162 18.47 14.464 19 16.016 19c.839 0 1.575-.162 2.21-.486l.161-.082.635 1.541-.148.066a6.956 6.956 0 0 1-2.858.588 7.334 7.334 0 0 1-3.647-.938 7.083 7.083 0 0 1-2.618-2.6 7.405 7.405 0 0 1-.718-1.75 7.243 7.243 0 0 1-.01-3.657 7.037 7.037 0 0 1 1.863-3.218 6.768 6.768 0 0 1 1.495-1.116 7.811 7.811 0 0 1 1.738-.7 7.248 7.248 0 0 1 1.897-.248c1.3 0 2.5.313 3.592.94a6.777 6.777 0 0 1 2.6 2.599 6.966 6.966 0 0 1 .959 3.576c0 1.184-.25 2.13-.751 2.833-.512.716-1.222 1.077-2.116 1.077-.88 0-1.563-.395-2.035-1.17-.61.778-1.448 1.17-2.501 1.17s-1.931-.366-2.623-1.096c-.69-.727-1.036-1.645-1.036-2.742 0-1.086.346-1.997 1.036-2.725.703-.741 1.557-1.114 2.551-1.114.865 0 1.604.296 2.21.885V10zm-4.022 3.587c0 .316.05.605.15.867a1.957 1.957 0 0 0 1.063 1.113c.243.104.508.157.798.157a1.99 1.99 0 0 0 1.44-.59c.18-.181.32-.401.42-.662.1-.262.151-.557.151-.885 0-.317-.05-.609-.151-.878a1.85 1.85 0 0 0-.42-.67 1.99 1.99 0 0 0-1.44-.59 1.97 1.97 0 0 0-1.437.597 1.957 1.957 0 0 0-.423.673c-.1.263-.151.552-.151.868z" fill="#F5F5F5" fill-rule="nonzero"/></g></svg>