<svg viewBox="0 0 32 32" xmlns="http://www.w3.org/2000/svg"><g fill="none"><path d="M2 7.873C2 6.838 2.853 6 3.914 6h24.172C29.143 6 30 6.834 30 7.873v16.254C30 25.162 29.147 26 28.086 26H3.914C2.857 26 2 25.166 2 24.127V7.873z" fill="#E0E0E0"/><path fill="#F5F5F5" d="M3.909 7.875h24.182v16.25H3.909z"/><path d="M25.158 19.75H16L12.233 26H7.435v-7.284A10.22 10.22 0 0 1 16 14.125c4.026 0 7.506 2.295 9.158 5.625z" fill="#EA4335"/><path d="M7.415 18.746L11.633 26H5.997a9.88 9.88 0 0 1 1.418-7.254z" fill="#34A853"/><path d="M24.996 19.438H16L19.78 26h6.223a9.88 9.88 0 0 0-1.007-6.563z" fill="#FBBC05"/><path d="M11.624 26a4.6 4.6 0 0 1-.397-1.875c0-2.589 2.137-4.688 4.773-4.688 2.636 0 4.773 2.1 4.773 4.688A4.6 4.6 0 0 1 20.376 26h-8.752z" fill="#F1F1F1"/><path d="M12.693 26a3.682 3.682 0 0 1-.511-1.875c0-2.071 1.71-3.75 3.818-3.75 2.109 0 3.818 1.679 3.818 3.75a3.69 3.69 0 0 1-.51 1.875h-6.615z" fill="#4285F4"/><path d="M30 7.875V16H2V7.875C2 6.844 2.86 6 3.91 6h24.18C29.14 6 30 6.844 30 7.875z" fill-opacity=".05" fill="#212121"/></g></svg>