<svg viewBox="0 0 32 32" xmlns="http://www.w3.org/2000/svg"><g fill="none" fill-rule="evenodd"><path d="M27 4v6H16c-1.657 0-3-1.347-3-3 0-1.657 1.334-3 3-3h11zm0 18v6H16c-1.657 0-3-1.347-3-3 0-1.657 1.334-3 3-3h11zm-11-9v6H5c-1.657 0-3-1.347-3-3 0-1.657 1.334-3 3-3h11z" fill="#669DF6"/><path d="M27 4c1.657 0 3 1.347 3 3 0 1.657-1.347 3-3 3-1.657 0-3-1.347-3-3 0-1.657 1.347-3 3-3zm0 18c1.657 0 3 1.347 3 3 0 1.657-1.347 3-3 3-1.657 0-3-1.347-3-3 0-1.657 1.347-3 3-3zm-11-9c1.657 0 3 1.347 3 3 0 1.657-1.347 3-3 3-1.657 0-3-1.347-3-3 0-1.657 1.347-3 3-3z" fill="#1A73E8"/></g></svg>