<svg viewBox="0 0 32 32" xmlns="http://www.w3.org/2000/svg"><defs><radialGradient cx="10.539%" cy="6.915%" fx="10.539%" fy="6.915%" r="109.947%" gradientTransform="scale(1 .91949) rotate(53.091 .1 .072)" id="a"><stop stop-color="#1DDDBD" offset="0%"/><stop stop-color="#1ED9C0" offset="41.281%"/><stop stop-color="#2978FF" offset="100%"/></radialGradient><radialGradient cx="39.747%" cy="109.339%" fx="39.747%" fy="109.339%" r="67.879%" gradientTransform="matrix(-.22439 -.974 .96464 -.22657 -.568 1.728)" id="b"><stop stop-color="#FFF" offset="0%"/><stop stop-color="#FFF" stop-opacity="0" offset="100%"/></radialGradient><radialGradient cx="39.747%" cy="109.339%" fx="39.747%" fy="109.339%" r="67.891%" gradientTransform="matrix(-.22435 -.97382 .96104 -.22733 -.564 1.728)" id="c"><stop stop-color="#FFF" offset="0%"/><stop stop-color="#FFF" stop-opacity="0" offset="100%"/></radialGradient><radialGradient cx="39.747%" cy="109.339%" fx="39.747%" fy="109.339%" r="67.888%" gradientTransform="matrix(-.22436 -.97386 .96193 -.22715 -.565 1.729)" id="d"><stop stop-color="#FFF" offset="0%"/><stop stop-color="#FFF" stop-opacity="0" offset="100%"/></radialGradient><radialGradient cx="39.747%" cy="109.339%" fx="39.747%" fy="109.339%" r="67.883%" gradientTransform="matrix(-.22438 -.97393 .96336 -.22684 -.567 1.729)" id="e"><stop stop-color="#FFF" offset="0%"/><stop stop-color="#FFF" stop-opacity="0" offset="100%"/></radialGradient><radialGradient cx="39.747%" cy="109.339%" fx="39.747%" fy="109.339%" r="67.865%" gradientTransform="scale(-.99438 -1) rotate(76.955 1.375 -.501)" id="f"><stop stop-color="#FFF" offset="0%"/><stop stop-color="#FFF" stop-opacity="0" offset="100%"/></radialGradient><radialGradient cx="39.747%" cy="109.339%" fx="39.747%" fy="109.339%" r="67.849%" gradientTransform="matrix(-.2245 -.97443 .9735 -.2247 -.578 1.726)" id="g"><stop stop-color="#FFF" offset="0%"/><stop stop-color="#FFF" stop-opacity="0" offset="100%"/></radialGradient></defs><g fill="none" fill-rule="evenodd"><path d="M5.679 14.89a6.83 6.83 0 0 0-.161.126c-1.938-.889-2.606-2.748-2.311-4.362.528-2.895 4.225-5.824 8.39-4.236.082.03.196.075.275.111.435.194.188.062-.276-.115-.2-2.123 1.077-3.581 2.622-4.133 2.772-.99 7.173.628 7.88 5.028 1.738-1.23 3.645-.8 4.895.263 2.243 1.905 2.936 6.594-.521 9.406 1.926.89 2.605 2.707 2.31 4.32-.528 2.895-4.236 5.826-8.4 4.238.198 2.125-1.058 3.646-2.604 4.197-2.771.99-7.15-.785-7.86-5.183-1.738 1.226-3.66.937-4.91-.125-2.243-1.905-2.947-6.594.51-9.407.046-.038.105-.085.16-.127z" fill="url(#a)"/><path d="M12.273 12.884l-.676-6.477c-4.165-1.588-7.862 1.34-8.39 4.235-.295 1.615.373 3.474 2.31 4.362 1.382-1.109 4.051-2.318 6.756-2.12z" fill="url(#b)" opacity=".65"/><path d="M11.662 22.818l-.675-6.47c-4.164-1.588-7.873 1.365-8.402 4.26-.294 1.615.418 3.427 2.356 4.315 1.378-1.113 3.892-2.247 6.72-2.105z" fill="url(#c)" opacity=".65" transform="rotate(-60 7.092 20.413)"/><path d="M19.958 28.305l-.64-6.458c-4.164-1.588-7.893 1.318-8.422 4.214-.294 1.614.394 3.462 2.332 4.351 1.368-1.107 3.988-2.269 6.73-2.107z" fill="url(#d)" opacity=".65" transform="rotate(-120 15.394 25.905)"/><path d="M28.848 23.868l-.639-6.456c-4.164-1.588-7.872 1.343-8.4 4.239-.295 1.614.385 3.432 2.323 4.32 1.34-1.099 3.84-2.246 6.716-2.103z" fill="url(#e)" opacity=".65" transform="rotate(180 24.295 21.468)"/><path d="M29.45 13.905l-.639-6.465c-4.164-1.588-7.878 1.357-8.407 4.252-.295 1.615.287 3.481 2.225 4.37.677-.493 1.53-1.053 2.54-1.445a10.5 10.5 0 0 1 4.282-.712z" fill="url(#f)" opacity=".65" transform="rotate(120 24.891 11.528)"/><path d="M21.185 8.462l-.733-6.521c-4.164-1.588-7.766 1.415-8.295 4.31-.294 1.615.331 3.45 2.27 4.338 1.348-1.097 3.906-2.29 6.758-2.127z" fill="url(#g)" opacity=".65" transform="rotate(60 16.637 6.045)"/></g></svg>