<svg viewBox="0 0 32 32" xmlns="http://www.w3.org/2000/svg"><path fill="#FBBC05" d="M19.94 24.372l.063-4.023h-2.39L12.032 30h4.78l3.192-5.52z"/><path fill="#34A853" d="M15.098 16h2.516v4.349L12.03 30H7z"/><path fill-opacity=".1" fill="#BF360C" d="M20.003 24.48v-4.13h-2.39l-.585 1.013z"/><path fill-opacity=".1" d="M17.027 21.362l.587-1.013.272-3.224L15.098 16l-1.2 2.078z"/><path fill="#EA4335" d="M24.148 17.313a2.62 2.62 0 0 0 0-2.625L16.81 2h-4.78l3.04 9.065 7.447 9.065 1.63-2.817z"/><path fill="#4285F4" d="M12.031 2H7l13.003 22.48 2.513-4.346.002-.004z"/></svg>