<svg viewBox="0 0 32 32" xmlns="http://www.w3.org/2000/svg"><g fill="none" fill-rule="evenodd"><circle fill="#1A73E8" cx="16" cy="16" r="14"/><path d="M21.777 28.756l-9.232-9.184-.51-5.149 1.116-6.29 14.985 14.852a14.058 14.058 0 0 1-6.36 5.771z" fill-opacity=".1" fill="#000" fill-rule="nonzero"/><path d="M11.985 14.385h-1.928v1.957a15.413 15.413 0 0 0 5.635 5.62l1.943-.002.002-1.942a13.418 13.418 0 0 1-5.652-5.633z" fill="#F1F3F4" fill-rule="nonzero"/><path d="M23.362 18.655c.435.057.638.228.638.619v4.052a.666.666 0 0 1-.666.666c-2.782 0-5.39-.735-7.64-2.03l3.688-3.685c.184-.185.443-.206.684-.16 1.003.195 2.182.394 3.296.538zM13.34 8.61c.145 1.114.366 2.357.562 3.362.046.241.024.5-.16.684l-3.685 3.688A15.397 15.397 0 0 1 8 8.671.67.67 0 0 1 8.666 8h4.06c.368-.001.559.171.614.608z" fill="#FFF" fill-rule="nonzero"/></g></svg>