<svg viewBox="0 0 32 32" xmlns="http://www.w3.org/2000/svg"><g fill="none" fill-rule="evenodd"><path fill="#34A853" d="M4 5.5h6.933V16l-3.466 3.5L4 16z"/><path d="M9.186 2.461a3.449 3.449 0 0 0-4.73 1.303c-.95 1.678-.371 3.816 1.291 4.775l18.2 10.5a3.449 3.449 0 0 0 4.73-1.303c.95-1.678.372-3.816-1.29-4.775l-18.2-10.5z" fill="#5BB974"/><path d="M7.534 30c.562-.01 1.13-.16 1.652-.461l18.2-10.5c1.663-.959 2.24-3.097 1.29-4.775a3.449 3.449 0 0 0-4.729-1.303l-18.2 10.5c-1.662.959-2.24 3.097-1.29 4.775A3.46 3.46 0 0 0 7.406 30h.128z" fill="#81C995"/><path fill="#34A853" d="M4 16h6.933v10.5H4z"/><ellipse fill="#1E8E3E" cx="7.467" cy="26.5" rx="3.467" ry="3.5"/></g></svg>