<svg viewBox="0 0 32 32" xmlns="http://www.w3.org/2000/svg"><g fill="none" fill-rule="evenodd"><path d="M24 2h-8.5c-.825 0-1.5.675-1.5 1.5v19c0 .825.675 1.5 1.5 1.5h13c.825 0 1.5-.675 1.5-1.5V8l-3.5-2.5L24 2z" fill="#FBBC05"/><path d="M25.25 12h-6.5a.752.752 0 0 0-.75.75v6.5c0 .413.337.75.75.75h6.5c.413 0 .75-.337.75-.75v-6.5a.752.752 0 0 0-.75-.75zM25 17.5h-6V14h6v3.5z" fill="#F5F5F5"/><path fill-opacity=".1" fill="#BF360C" d="M24.439 7.561L30 13.121V8z"/><path d="M24 2v4.5A1.5 1.5 0 0 0 25.5 8H30l-6-6z" fill="#FBDD81"/><path d="M18 5H9.5C8.675 5 8 5.675 8 6.5v19c0 .825.675 1.5 1.5 1.5h13c.825 0 1.5-.675 1.5-1.5V11l-3.5-2.5L18 5z" fill="#34A853"/><path d="M12 16v7h8v-7h-8zm3.5 6H13v-1h2.5v1zm0-2H13v-1h2.5v1zm0-2H13v-1h2.5v1zm3.5 4h-2.5v-1H19v1zm0-2h-2.5v-1H19v1zm0-2h-2.5v-1H19v1z" fill="#F5F5F5"/><path fill-opacity=".1" fill="#000" d="M18.439 10.561L24 16.121V11z"/><path d="M18 5v4.5a1.5 1.5 0 0 0 1.5 1.5H24l-6-6z" fill="#97D2AF"/><path d="M12 8H3.5C2.675 8 2 8.675 2 9.5v19c0 .825.675 1.5 1.5 1.5h13c.825 0 1.5-.675 1.5-1.5V14l-3.5-2.5L12 8z" fill="#4285F4"/><path fill-opacity=".1" fill="#000" d="M12.439 13.561L18 19.121V14z"/><path d="M6 24h8v-1H6v1zm0 2h6v-1H6v1zm0-7v1h8v-1H6zm0 3h8v-1H6v1z" fill="#F5F5F5"/><path d="M12 8v4.5a1.5 1.5 0 0 0 1.5 1.5H18l-6-6z" fill="#A1C2FA"/></g></svg>