<svg viewBox="0 0 32 32" xmlns="http://www.w3.org/2000/svg"><g fill="none"><path d="M13.455 7.514H3.909A1.897 1.897 0 0 0 2 9.4v9.9-.08c0-.25.1-.49.28-.666l8.961-4.522 2.214-6.518z" fill="#34A853"/><path d="M28.09 27H3.91A1.897 1.897 0 0 1 2 25.114V19.22c0-.25.1-.49.28-.666l9.138-4.62 4.304-8.657A.958.958 0 0 1 16.396 5h11.695C29.146 5 30 5.844 30 6.886v18.228A1.897 1.897 0 0 1 28.09 27z" fill="#4285F4"/><path d="M30 25.114v-6.757L16.477 5c-.332 0-.579.104-.759.288l-3.926 8.478-9.512 4.786a.936.936 0 0 0-.28.668v.08L9.795 27h18.296A1.897 1.897 0 0 0 30 25.114z" fill-opacity=".1" fill="#000"/><path d="M15.72 5.277l-5.056 7.779-8.384 5.496a.936.936 0 0 0-.28.668v.08c0-.26.213-.471.477-.471h11.614A1.897 1.897 0 0 0 16 16.943V5.47c0-.26.213-.471.477-.471h-.08a.96.96 0 0 0-.677.277z" fill="#EA4335"/><path d="M2 19.3a.86.86 0 0 1 .606-.819l8.483-2.665a2.847 2.847 0 0 0 1.86-1.837L15.647 5.6a.871.871 0 0 1 .83-.6h-.08a.956.956 0 0 0-.675.277L2.28 18.552a.936.936 0 0 0-.28.668v.08z" fill="#FBBC05"/></g></svg>