<svg viewBox="0 0 32 32" xmlns="http://www.w3.org/2000/svg"><g fill="none"><path fill="#34A853" d="M16.003 21.745l-3.798-3.776L9 18l.185 2.968 6.818 6.796 9.816-9.795L26 15l-3.18-.051z"/><path d="M7.053 12.817a2.636 2.636 0 0 1-.778-1.888c0-.71.289-1.377.778-1.888a2.636 2.636 0 0 1 1.887-.777c.711 0 1.4.289 1.888.777l2.132 2.133L16 11l-.02-2.847-2.131-2.132A6.908 6.908 0 0 0 8.94 4a6.908 6.908 0 0 0-4.908 2.021c-2.71 2.71-2.71 7.107 0 9.794l2.132 2.132L9 18l.162-3.073-2.11-2.11z" fill="#EA4335"/><path d="M27.951 6.021A6.908 6.908 0 0 0 23.043 4a6.908 6.908 0 0 0-4.908 2.021l-5.153 5.153v3.02h3.02l5.153-5.13a2.636 2.636 0 0 1 1.888-.778c.71 0 1.4.29 1.888.778.51.51.777 1.177.777 1.887a2.73 2.73 0 0 1-.777 1.888l-2.132 2.132 3.02 2.998 2.132-2.132a6.904 6.904 0 0 0 0-9.816z" fill="#4285F4"/><path fill="#FBBC05" d="M6.186 17.97l2.999 2.998 6.818-6.796-3.02-2.998z"/></g></svg>