<svg viewBox="0 0 32 32" xmlns="http://www.w3.org/2000/svg"><g fill="none"><path d="M19.958 10.085l3.607-.77-.033-2.811A11.283 11.283 0 0 0 16 3.628c-5.231 0-9.643 3.564-10.95 8.396.275-.191 3.385.45 3.385.45s2.783-1.76 2.91-1.732a6.287 6.287 0 0 1 8.613-.657z" fill="#EA4335"/><path d="M26.954 12.03a11.389 11.389 0 0 0-3.423-5.528l-3.575 3.581a6.311 6.311 0 0 1 2.348 4.914v.631a3.158 3.158 0 0 1 0 6.316H16l-1.884 2.648L16 26.997h6.304c4.519 0 8.196-3.684 8.196-8.21a8.21 8.21 0 0 0-3.546-6.757z" fill="#4285F4"/><path d="M9.696 26.997h6.3v-5.053h-6.3c-.464 0-.902-.102-1.299-.284l-3.745.287.092 3.376a8.146 8.146 0 0 0 4.952 1.674z" fill="#34A853"/><path d="M9.696 10.576c-4.519 0-8.196 3.683-8.196 8.21a8.203 8.203 0 0 0 3.247 6.539l3.655-3.662a3.158 3.158 0 0 1 1.294-6.035c1.276 0 2.376.766 2.871 1.862l3.655-3.662a8.178 8.178 0 0 0-6.526-3.252z" fill="#FBBC05"/></g></svg>