<svg viewBox="0 0 32 32" xmlns="http://www.w3.org/2000/svg"><g fill="none"><path fill="#34A853" d="M23.222 29.004H8.778l-1.16-2.888 1.16-2.89h14.444l.722 2.89z"/><path d="M29 15.161V27.56c0 .798-.646 1.444-1.444 1.444h-4.334V16.967L16 9.745l.993-2.799 3.062-1.262.004.003 8.564 8.573c.222.242.377.555.377.901z" fill="#4285F4"/><path d="M8.778 16.967v12.037H4.444A1.444 1.444 0 0 1 3 27.56v-4.815l2.708-4.108 3.07-1.67z" fill="#FBBC05"/><path d="M20.059 5.687L16 9.745l-13 13V15.16c.013-.346.155-.659.377-.9 0 0 11.58-11.59 11.603-11.616.262-.26.659-.422 1.02-.422s.758.162 1.02.422l3.035 3.039" fill="#EA4335"/></g></svg>