<svg viewBox="0 0 32 32" xmlns="http://www.w3.org/2000/svg"><g fill="none" fill-rule="evenodd"><circle fill="#1A73E8" cx="16" cy="16" r="14"/><path d="M17.073 29.96l-8.391-8.392L22.84 9.795l7.119 7.277c-.521 6.877-6.01 12.366-12.887 12.887z" fill-opacity=".1" fill="#000" fill-rule="nonzero"/><path d="M20.455 9H6.152a.652.652 0 0 0-.547 1.005l2.122 3.276v5.9A3.83 3.83 0 0 0 11.545 23h8.91a3.83 3.83 0 0 0 3.818-3.818v-6.364A3.83 3.83 0 0 0 20.455 9z" fill="#FFF"/><path d="M21 13c0 .552-.42 1-.938 1h-8.125c-.517 0-.937-.448-.937-1s.42-1 .938-1h8.124c.518 0 .938.448.938 1zm-4 6c0 .552-.404 1-.9 1h-4.2c-.497 0-.9-.448-.9-1s.403-1 .9-1h4.2c.496 0 .9.448.9 1zm4-3c0 .552-.42 1-.938 1h-8.125c-.517 0-.937-.448-.937-1s.42-1 .938-1h8.124c.518 0 .938.448.938 1z" fill="#8AB4F8"/></g></svg>