<svg viewBox="0 0 32 32" xmlns="http://www.w3.org/2000/svg"><g fill="none"><path d="M6 26a3 3 0 0 1 0-6h15v6H6z" fill="#EA4335"/><path d="M7.215 16.369a3 3 0 0 1 3.61-4.792l11.98 9.027-3.61 4.792-11.98-9.027z" fill="#FBBC05"/><path d="M13.746 9.533a3 3 0 1 1 5.737-1.755l4.386 14.345-5.738 1.754-4.385-14.344z" fill="#34A853"/><path d="M22.517 7.778a3 3 0 0 1 5.737 1.755L23.87 23.877a3 3 0 0 1-5.738-1.754l4.386-14.345z" fill="#4285F4"/><path d="M23.951 8.217a1.5 1.5 0 1 1 2.869.877 1.5 1.5 0 0 1-2.869-.877zM19.566 22.56a1.5 1.5 0 1 1 2.868.878 1.5 1.5 0 0 1-2.868-.878zM15.18 9.094a1.5 1.5 0 1 1 2.869-.877 1.5 1.5 0 0 1-2.869.877zm-7.062 6.077a1.5 1.5 0 1 1 1.805-2.396 1.5 1.5 0 0 1-1.805 2.396zM6 24.5a1.5 1.5 0 1 1 0-3 1.5 1.5 0 0 1 0 3z" fill="#FFF"/></g></svg>