<svg viewBox="0 0 32 32" xmlns="http://www.w3.org/2000/svg"><g fill="none" fill-rule="evenodd"><path d="M6 3.991C6 2.891 6.893 2 8.003 2h10.996L21 6l5 3v19.005A1.997 1.997 0 0 1 24.01 30H7.99C6.892 30 6 29.1 6 28.009V3.99z" fill="#EBEBEB"/><path fill-opacity=".1" fill="#000" d="M19.585 8.415L26 9v5.83z"/><path d="M19 2l7 7h-4.994A1.999 1.999 0 0 1 19 6.994V2z" fill="#4285F4"/><path d="M11 22.5a1.5 1.5 0 1 0 0-3 1.5 1.5 0 0 0 0 3z" fill="#FBBC05"/><path d="M11 26.5a1.5 1.5 0 1 0 0-3 1.5 1.5 0 0 0 0 3z" fill="#34A853"/><path d="M11 18.5a1.5 1.5 0 1 0 0-3 1.5 1.5 0 0 0 0 3z" fill="#EA4335"/><path d="M14 24h8v2h-8v-2zm8-4v2h-8v-2h8zm-8-4h8v2h-8v-2z" fill="silver"/></g></svg>