<svg viewBox="0 0 32 32" xmlns="http://www.w3.org/2000/svg"><g fill="none"><path d="M27.082 30h-15.36V14h15.36c1.06 0 1.92.86 1.92 1.92v12.16c0 1.06-.86 1.92-1.92 1.92z" fill="#EEE"/><path d="M20.38 14h-8.658v15.998l15.36.002c1.06 0 1.92-.86 1.92-1.92v-5.458L20.379 14z" fill-opacity=".1" fill="#000"/><path d="M11.722 22.678l-1.92-5.57 1.92-4.386 2.115-4.679 3.715-1.158A15.385 15.385 0 0 1 20.396 14c.08.626-3.05 6.047-3.05 6.047l-5.624 2.63z" fill="#8BC34A"/><path d="M11.722 12.722l-1.4-3.729-3.08-.756-2.233.002a15.316 15.316 0 0 0-2.087 7.671l8.8 6.768v-9.956z" fill="#0B8142"/><path d="M2.922 15.91c0 6.012 3.536 11.264 8.798 14.09l1.442-3.77-1.44-3.552-8.66-8.79a15.35 15.35 0 0 0-.14 2.022z" fill="#0B552B"/><path d="M17.554 6.885l-5.832 5.837-1.6-5.008 1.6-5.874a17.082 17.082 0 0 1 5.832 5.045z" fill="#C6FF00"/><path d="M7.24 8.24l4.482 4.482V1.84A17.241 17.241 0 0 0 7.24 5.255V8.24z" fill="#57BB8A"/><path d="M20.522 15.91c0 6.012-3.538 11.264-8.8 14.09v-7.682l-.002.36s8.67-8.715 8.676-8.677c.08.626.126 1.264.126 1.91z" fill="#0F9D58"/></g></svg>