<svg viewBox="0 0 32 32" xmlns="http://www.w3.org/2000/svg"><g fill="none" fill-rule="evenodd"><path fill="#4285F4" d="M18.475 7.975l-4.95-4.95-10.5 10.5 4.95 4.95z"/><path d="M12.756 4.183a3.501 3.501 0 0 0 .77 3.792L21.55 16l-8.025 8.025 4.95 4.95 10.5-10.5a3.5 3.5 0 0 0 0-4.95l-10.5-10.5A3.489 3.489 0 0 0 16 2a3.5 3.5 0 0 0-3.225 2.138l-.019.045z" fill="#8AB4F8"/><path d="M18.475 24.025l-4.95 4.95-10.5-10.5a3.5 3.5 0 1 1 4.95-4.95l10.5 10.5z" fill="#4285F4"/><path d="M16 30a3.5 3.5 0 1 1 0-7 3.5 3.5 0 0 1 0 7z" fill="#246FDB"/></g></svg>