<svg viewBox="0 0 32 32" xmlns="http://www.w3.org/2000/svg"><g fill="none"><path d="M6.1 25.9c3.206-9.146 9.806-15.745 19.8-19.8 5.467 5.468 5.467 14.332 0 19.8-5.468 5.467-14.332 5.467-19.8 0z" fill="#F1F3F4"/><path d="M6.1 25.9C.634 20.431.634 11.567 6.1 6.1 11.569.634 20.433.634 25.9 6.1L6.1 25.9z" fill="#DADCE0"/><path d="M30 15.784v.426c-.114 7.634-6.338 13.787-13.998 13.787-.972 0-1.92-.1-2.836-.288l-5.439-5.438L24.274 7.727l5.442 5.442c.173.846.27 1.72.284 2.615z" fill-opacity=".1" fill="#000" opacity=".35"/><path fill="#EA4335" d="M24.271 7.727L12.98 12.98 7.726 24.273l11.292-5.253z"/><path d="M15.997 17.27a1.272 1.272 0 1 1 0-2.545 1.272 1.272 0 0 1 0 2.545z" fill="#D2D4D8"/></g></svg>