<svg viewBox="0 0 32 32" xmlns="http://www.w3.org/2000/svg"><g fill="none" fill-rule="evenodd"><path d="M2.206 22.63l7.51-7.51 2.805 2.805-7.51 7.51a.702.702 0 0 1-.992 0L2.206 23.62a.702.702 0 0 1 0-.992z" fill="#4285F4"/><path d="M13.016 12.81l6.518 6.518-2.306 2.307a.702.702 0 0 1-.993 0l-6.517-6.518 2.307-2.306a.702.702 0 0 1 .991 0z" fill="#EA4335"/><path fill="#FBBC05" d="M16.73 16.523l7.715-7.715 2.806 2.805-7.716 7.716z"/><path d="M30 13.78V6.818A.818.818 0 0 0 29.182 6H22.22a.818.818 0 0 0-.579 1.397l6.962 6.962a.818.818 0 0 0 1.397-.58z" fill="#34A853"/></g></svg>