<svg viewBox="0 0 32 32" xmlns="http://www.w3.org/2000/svg"><g fill="none"><path d="M29 13.955C29 6.8 23.176 1 16 1S3 6.8 3 13.955c0 6.777 6.202 12.272 13 12.272V31c7.896-3.992 13-10.416 13-17.045z" fill="#00897B"/><path d="M22.5 26.626l-9.186-9.186-.82-4.835L13.53 7.15l13.658 13.66c-1.112 2.077-2.703 4.044-4.689 5.815z" fill-opacity=".1" fill="#000"/><path d="M17.439 19.218l-.006-1.699a11.753 11.753 0 0 1-4.938-4.914h-1.696v1.698a13.488 13.488 0 0 0 4.931 4.915h1.709z" fill="#E0E0E0"/><path d="M19.558 15.855c.878.17 1.909.345 2.884.47.38.052.558.2.558.541v3.546c0 .322-.26.583-.583.583-2.434 0-4.716-.643-6.685-1.777l3.227-3.223c.161-.161.387-.18.599-.14zm-5.886-8.32c.127.975.32 2.062.492 2.942.04.212.021.438-.14.599L10.8 14.303A13.48 13.48 0 0 1 9 7.59c0-.322.26-.59.583-.59h3.552c.322-.002.489.154.537.535z" fill="#F5F5F5"/></g></svg>