<svg viewBox="0 0 32 32" xmlns="http://www.w3.org/2000/svg"><g fill="none"><path d="M29.798 18.312c-.043-1.344-.438-6.462-.526-7.085a13.57 13.57 0 0 0-.84-3.177c-.254-.635-.639-1.28-1.602-1.972-1.23-.885-2.223-1.031-3.485-1.031-.88 0-1.48.051-1.868.078-3.162.215-6.047.56-8.82 1.055-2.46.438-4.317.928-6.02 1.59-1.272.493-2.265 1.117-3.037 1.908-1.257 1.287-1.587 2.47-1.313 3.892.371 1.93.973 6.392 1.001 6.635.135 1.183.34 2.573.824 3.907.535 1.473 1.523 2.366 3.025 2.728.971.235 1.971.157 3.271-.15 1.76-.413 3.514-.815 5.295-1.143 3.017-.555 5.844-.705 7.067-.78.543-.034 1.86-.14 1.972-.154.296-.033.69-.105 1.071-.19 1.009-.223 1.745-.741 2.437-1.401.333-.319.747-.84.998-1.36.545-1.129.584-2.327.55-3.35z" fill="#EA4335"/><path d="M20.767 15.095c-.302.212-5.835 4.307-6.597 4.732-.278-1.02-1.088-6.24-1.157-7.48 1.184.141 6.229 1.93 7.754 2.748z" fill="#FFF"/></g></svg>