<svg viewBox="0 0 40 40" xmlns="http://www.w3.org/2000/svg"><g fill="none"><path d="M4.02 28.27A17.833 17.833 0 0 1 2 20c0-2.87.68-5.59 1.88-8 1.2-2.41-1.72-1.04-1.72-1.04A19.89 19.89 0 0 0 0 20c0 3.31.8 6.43 2.23 9.18s1.79-.91 1.79-.91z" fill="#F6AD01"/><path d="M33.49 34.77C37.49 31.12 40 25.85 40 20c0-5.86-2.52-11.13-6.54-14.79-4.02-3.66-1.37 1.46-1.37 1.46C35.72 9.97 38 14.72 38 20c0 5.25-2.26 9.98-5.85 13.27-3.59 3.29 1.34 1.5 1.34 1.5z" fill="#3174F1"/><path d="M32.15 33.27C28.95 36.21 24.68 38 20 38c-6.95 0-12.98-3.95-15.99-9.73l-1.79.91C5.55 35.61 12.26 40 20 40c5.2 0 9.93-1.98 13.48-5.23l-1.33-1.5z" fill="#249A41"/><path d="M20 2c4.65 0 8.89 1.77 12.09 4.67l1.37-1.46A19.887 19.887 0 0 0 20 0C12.21 0 5.46 4.46 2.16 10.96L3.88 12C6.83 6.08 12.95 2 20 2" fill="#E92D18"/></g></svg>